G04*
G04 #@! TF.GenerationSoftware,Altium Limited,Altium Designer,18.1.9 (240)*
G04*
G04 Layer_Color=16711935*
%FSAX25Y25*%
%MOIN*%
G70*
G01*
G75*
%ADD22R,0.04540X0.04147*%
%ADD25O,0.16548X0.08674*%
%ADD26C,0.06706*%
%ADD27C,0.06710*%
%ADD28C,0.07296*%
%ADD29R,0.07296X0.07296*%
%ADD30R,0.06706X0.06706*%
%ADD31C,0.06706*%
%ADD55R,0.06312X0.11430*%
%ADD56R,0.05524X0.05524*%
%ADD57R,0.11036X0.06706*%
%ADD58R,0.11036X0.04737*%
%ADD59R,0.08674X0.03556*%
%ADD60R,0.12020X0.05721*%
%ADD61R,0.26391X0.22650*%
%ADD62R,0.05524X0.05524*%
%ADD63R,0.16548X0.12611*%
D22*
X0598500Y0358250D02*
D03*
Y0364550D02*
D03*
X0598600Y0372250D02*
D03*
Y0378550D02*
D03*
D25*
X0462598Y0371532D02*
D03*
X0380905D02*
D03*
X0380865Y0281768D02*
D03*
X0462598D02*
D03*
D26*
X0406535Y0374170D02*
D03*
X0319700Y0286437D02*
D03*
X0309700D02*
D03*
X0169700D02*
D03*
X0179700D02*
D03*
X0189700D02*
D03*
X0199700D02*
D03*
X0209700D02*
D03*
X0219700D02*
D03*
X0229700Y0286476D02*
D03*
X0299700Y0286437D02*
D03*
X0289700D02*
D03*
X0279700D02*
D03*
X0269700D02*
D03*
X0239700D02*
D03*
X0249700D02*
D03*
X0259700D02*
D03*
X0209700Y0368563D02*
D03*
X0219700D02*
D03*
X0229700D02*
D03*
X0239700D02*
D03*
X0249700D02*
D03*
X0259700D02*
D03*
X0269700D02*
D03*
X0279700D02*
D03*
X0289700D02*
D03*
X0299700D02*
D03*
X0309700D02*
D03*
X0319700D02*
D03*
D27*
X0416535Y0374131D02*
D03*
X0426535D02*
D03*
X0436574Y0374170D02*
D03*
D28*
X0677218Y0348183D02*
D03*
Y0338183D02*
D03*
Y0328183D02*
D03*
Y0318183D02*
D03*
Y0308183D02*
D03*
X0667218Y0348183D02*
D03*
Y0338183D02*
D03*
Y0328183D02*
D03*
Y0318183D02*
D03*
D29*
Y0308183D02*
D03*
D30*
X0588300Y0372100D02*
D03*
X0578000Y0285000D02*
D03*
X0602300Y0284900D02*
D03*
X0493800Y0285600D02*
D03*
D31*
X0578300Y0372100D02*
D03*
X0568000Y0285000D02*
D03*
X0558000D02*
D03*
X0612300Y0284900D02*
D03*
X0622300D02*
D03*
X0200700Y0327800D02*
D03*
X0559200Y0328200D02*
D03*
X0638300D02*
D03*
X0279510Y0327932D02*
D03*
X0543800Y0285600D02*
D03*
X0533800D02*
D03*
X0523800D02*
D03*
X0513800D02*
D03*
X0503800D02*
D03*
D55*
X0207436Y0304666D02*
D03*
Y0323957D02*
D03*
D56*
X0207830Y0335965D02*
D03*
D57*
X0159405Y0343446D02*
D03*
D58*
Y0290887D02*
D03*
D59*
X0157436Y0299154D02*
D03*
Y0303485D02*
D03*
Y0307816D02*
D03*
Y0312146D02*
D03*
Y0316477D02*
D03*
Y0320808D02*
D03*
Y0325139D02*
D03*
Y0329469D02*
D03*
D60*
X0613543Y0358184D02*
D03*
Y0376137D02*
D03*
D61*
X0638700Y0367200D02*
D03*
D62*
X0589800Y0345088D02*
D03*
Y0356112D02*
D03*
D63*
X0465216Y0304569D02*
D03*
Y0351813D02*
D03*
M02*
