G04*
G04 #@! TF.GenerationSoftware,Altium Limited,Altium Designer,18.1.9 (240)*
G04*
G04 Layer_Color=32896*
%FSAX25Y25*%
%MOIN*%
G70*
G01*
G75*
%ADD10C,0.00984*%
%ADD11C,0.00787*%
%ADD12C,0.00591*%
%ADD14C,0.01000*%
%ADD64C,0.00394*%
%ADD65R,0.33435X0.10700*%
D10*
X0604826Y0355192D02*
G03*
X0604826Y0355192I-0000536J0000000D01*
G01*
D11*
X0165322Y0290607D02*
X0210243D01*
X0165361Y0345056D02*
X0210342D01*
X0154889Y0293631D02*
Y0296938D01*
Y0331702D02*
Y0339615D01*
X0210361Y0338946D02*
Y0345036D01*
X0210342Y0345056D02*
X0210361Y0345036D01*
X0210283Y0329890D02*
Y0332804D01*
X0210322Y0310560D02*
Y0317922D01*
X0210243Y0290607D02*
Y0298552D01*
X0667218Y0287513D02*
X0689639D01*
Y0368261D01*
X0654206D02*
X0689639D01*
X0654206Y0308183D02*
Y0368261D01*
X0654187Y0287513D02*
X0667218D01*
X0654206Y0287639D02*
Y0308183D01*
Y0287639D02*
X0654332Y0287513D01*
X0606850Y0352869D02*
Y0381570D01*
X0652558D01*
X0652637Y0381491D01*
Y0352869D02*
Y0381491D01*
X0606850Y0352869D02*
X0652637D01*
X0595547Y0367305D02*
X0601492D01*
Y0355258D02*
Y0367305D01*
X0595547Y0355258D02*
X0601492D01*
X0595547D02*
Y0367305D01*
X0601553Y0369495D02*
Y0381542D01*
X0595608D02*
X0601553D01*
X0595608Y0369495D02*
Y0381542D01*
Y0369495D02*
X0601553D01*
X0585115Y0359498D02*
X0594288D01*
Y0341781D02*
Y0359498D01*
X0594170Y0341663D02*
X0594288Y0341781D01*
X0585115Y0341663D02*
X0594170D01*
X0585115D02*
Y0359498D01*
X0489060Y0297285D02*
X0489192Y0297680D01*
X0441239Y0297285D02*
X0441279Y0302443D01*
Y0304214D01*
Y0359057D01*
X0441239Y0297285D02*
X0489060D01*
X0489192Y0297680D02*
Y0359057D01*
X0441279D02*
X0489192D01*
D12*
X0569800Y0370400D02*
Y0374336D01*
X0567832D01*
X0567176Y0373680D01*
Y0372368D01*
X0567832Y0371712D01*
X0569800D01*
X0563240Y0374336D02*
X0564552Y0373680D01*
X0565864Y0372368D01*
Y0371056D01*
X0565208Y0370400D01*
X0563896D01*
X0563240Y0371056D01*
Y0371712D01*
X0563896Y0372368D01*
X0565864D01*
X0581700Y0361300D02*
X0580388D01*
X0581044D01*
Y0365236D01*
X0581700Y0364580D01*
X0575796Y0361300D02*
X0578420D01*
X0575796Y0363924D01*
Y0364580D01*
X0576452Y0365236D01*
X0577764D01*
X0578420Y0364580D01*
X0574484Y0365236D02*
Y0362612D01*
X0573173Y0361300D01*
X0571861Y0362612D01*
Y0365236D01*
X0591276Y0364580D02*
X0591932Y0365236D01*
X0593244D01*
X0593900Y0364580D01*
Y0361956D01*
X0593244Y0361300D01*
X0591932D01*
X0591276Y0361956D01*
Y0363268D01*
X0592588D01*
X0589964Y0361300D02*
Y0365236D01*
X0587340Y0361300D01*
Y0365236D01*
X0586028D02*
Y0361300D01*
X0584061D01*
X0583405Y0361956D01*
Y0364580D01*
X0584061Y0365236D01*
X0586028D01*
X0620720Y0301176D02*
X0620064Y0301832D01*
Y0303144D01*
X0620720Y0303800D01*
X0623344D01*
X0624000Y0303144D01*
Y0301832D01*
X0623344Y0301176D01*
X0622032D01*
Y0302488D01*
X0624000Y0299864D02*
X0620064D01*
X0624000Y0297240D01*
X0620064D01*
Y0295929D02*
X0624000D01*
Y0293961D01*
X0623344Y0293305D01*
X0620720D01*
X0620064Y0293961D01*
Y0295929D01*
X0602332Y0306800D02*
Y0304176D01*
X0601020Y0305488D02*
X0603644D01*
X0601020Y0302864D02*
X0600364Y0302208D01*
Y0300896D01*
X0601020Y0300240D01*
X0601676D01*
X0602332Y0300896D01*
Y0301552D01*
Y0300896D01*
X0602988Y0300240D01*
X0603644D01*
X0604300Y0300896D01*
Y0302208D01*
X0603644Y0302864D01*
X0600364Y0298928D02*
X0602988D01*
X0604300Y0297617D01*
X0602988Y0296305D01*
X0600364D01*
X0601020Y0294993D02*
X0600364Y0294337D01*
Y0293025D01*
X0601020Y0292369D01*
X0601676D01*
X0602332Y0293025D01*
Y0293681D01*
Y0293025D01*
X0602988Y0292369D01*
X0603644D01*
X0604300Y0293025D01*
Y0294337D01*
X0603644Y0294993D01*
X0610764Y0310900D02*
X0614700D01*
X0612732D01*
Y0308276D01*
X0610764D01*
X0614700D01*
Y0306964D02*
X0612076D01*
X0610764Y0305652D01*
X0612076Y0304340D01*
X0614700D01*
X0612732D01*
Y0306964D01*
X0610764Y0303028D02*
X0614700D01*
Y0300405D01*
X0610764Y0299093D02*
X0614700D01*
Y0296469D01*
X0557868Y0278836D02*
X0556556D01*
X0555900Y0278180D01*
Y0275556D01*
X0556556Y0274900D01*
X0557868D01*
X0558524Y0275556D01*
Y0278180D01*
X0557868Y0278836D01*
X0559836Y0274900D02*
Y0277524D01*
X0561804D01*
X0562460Y0276868D01*
Y0274900D01*
X0565739D02*
X0564427D01*
X0563771Y0275556D01*
Y0276868D01*
X0564427Y0277524D01*
X0565739D01*
X0566395Y0276868D01*
Y0276212D01*
X0563771D01*
X0567707Y0274244D02*
X0570331D01*
X0571643Y0277524D02*
Y0275556D01*
X0572299Y0274900D01*
X0572955Y0275556D01*
X0573611Y0274900D01*
X0574267Y0275556D01*
Y0277524D01*
X0575579Y0274900D02*
X0576891D01*
X0576235D01*
Y0277524D01*
X0575579D01*
X0578859D02*
Y0274900D01*
Y0276212D01*
X0579514Y0276868D01*
X0580170Y0277524D01*
X0580826D01*
X0584762Y0274900D02*
X0583450D01*
X0582794Y0275556D01*
Y0276868D01*
X0583450Y0277524D01*
X0584762D01*
X0585418Y0276868D01*
Y0276212D01*
X0582794D01*
X0578332Y0306000D02*
Y0303376D01*
X0577020Y0304688D02*
X0579644D01*
X0577020Y0302064D02*
X0576364Y0301408D01*
Y0300096D01*
X0577020Y0299440D01*
X0577676D01*
X0578332Y0300096D01*
Y0300752D01*
Y0300096D01*
X0578988Y0299440D01*
X0579644D01*
X0580300Y0300096D01*
Y0301408D01*
X0579644Y0302064D01*
X0576364Y0298129D02*
X0578988D01*
X0580300Y0296817D01*
X0578988Y0295505D01*
X0576364D01*
X0577020Y0294193D02*
X0576364Y0293537D01*
Y0292225D01*
X0577020Y0291569D01*
X0577676D01*
X0578332Y0292225D01*
Y0292881D01*
Y0292225D01*
X0578988Y0291569D01*
X0579644D01*
X0580300Y0292225D01*
Y0293537D01*
X0579644Y0294193D01*
X0554920Y0299376D02*
X0554264Y0300032D01*
Y0301344D01*
X0554920Y0302000D01*
X0557544D01*
X0558200Y0301344D01*
Y0300032D01*
X0557544Y0299376D01*
X0556232D01*
Y0300688D01*
X0558200Y0298064D02*
X0554264D01*
X0558200Y0295440D01*
X0554264D01*
Y0294128D02*
X0558200D01*
Y0292161D01*
X0557544Y0291505D01*
X0554920D01*
X0554264Y0292161D01*
Y0294128D01*
X0533220Y0301176D02*
X0532564Y0301832D01*
Y0303144D01*
X0533220Y0303800D01*
X0535844D01*
X0536500Y0303144D01*
Y0301832D01*
X0535844Y0301176D01*
X0534532D01*
Y0302488D01*
X0536500Y0299864D02*
X0532564D01*
X0536500Y0297240D01*
X0532564D01*
Y0295929D02*
X0536500D01*
Y0293961D01*
X0535844Y0293305D01*
X0533220D01*
X0532564Y0293961D01*
Y0295929D01*
X0519520Y0299776D02*
X0518864Y0300432D01*
Y0301744D01*
X0519520Y0302400D01*
X0520176D01*
X0520832Y0301744D01*
Y0300432D01*
X0521488Y0299776D01*
X0522144D01*
X0522800Y0300432D01*
Y0301744D01*
X0522144Y0302400D01*
X0518864Y0298464D02*
X0522800D01*
Y0296496D01*
X0522144Y0295840D01*
X0519520D01*
X0518864Y0296496D01*
Y0298464D01*
X0522800Y0294529D02*
X0520176D01*
X0518864Y0293217D01*
X0520176Y0291905D01*
X0522800D01*
X0520832D01*
Y0294529D01*
X0512320Y0299176D02*
X0511664Y0299832D01*
Y0301144D01*
X0512320Y0301800D01*
X0512976D01*
X0513632Y0301144D01*
Y0299832D01*
X0514288Y0299176D01*
X0514944D01*
X0515600Y0299832D01*
Y0301144D01*
X0514944Y0301800D01*
X0512320Y0295240D02*
X0511664Y0295896D01*
Y0297208D01*
X0512320Y0297864D01*
X0514944D01*
X0515600Y0297208D01*
Y0295896D01*
X0514944Y0295240D01*
X0511664Y0293929D02*
X0515600D01*
Y0291305D01*
X0542332Y0306900D02*
Y0304276D01*
X0541020Y0305588D02*
X0543644D01*
X0541020Y0302964D02*
X0540364Y0302308D01*
Y0300996D01*
X0541020Y0300340D01*
X0541676D01*
X0542332Y0300996D01*
Y0301652D01*
Y0300996D01*
X0542988Y0300340D01*
X0543644D01*
X0544300Y0300996D01*
Y0302308D01*
X0543644Y0302964D01*
X0540364Y0299028D02*
X0542988D01*
X0544300Y0297717D01*
X0542988Y0296405D01*
X0540364D01*
X0541020Y0295093D02*
X0540364Y0294437D01*
Y0293125D01*
X0541020Y0292469D01*
X0541676D01*
X0542332Y0293125D01*
Y0293781D01*
Y0293125D01*
X0542988Y0292469D01*
X0543644D01*
X0544300Y0293125D01*
Y0294437D01*
X0543644Y0295093D01*
X0495500Y0298900D02*
X0491564D01*
Y0296932D01*
X0492220Y0296276D01*
X0493532D01*
X0494188Y0296932D01*
Y0298900D01*
Y0297588D02*
X0495500Y0296276D01*
X0491564Y0294964D02*
X0495500Y0292340D01*
X0491564D02*
X0495500Y0294964D01*
X0501364Y0299200D02*
Y0296576D01*
Y0297888D01*
X0505300D01*
X0501364Y0295264D02*
X0505300Y0292640D01*
X0501364D02*
X0505300Y0295264D01*
X0649976Y0329880D02*
X0650632Y0330536D01*
X0651944D01*
X0652600Y0329880D01*
Y0327256D01*
X0651944Y0326600D01*
X0650632D01*
X0649976Y0327256D01*
Y0328568D01*
X0651288D01*
X0648664Y0326600D02*
Y0330536D01*
X0646040Y0326600D01*
Y0330536D01*
X0644729D02*
Y0326600D01*
X0642761D01*
X0642105Y0327256D01*
Y0329880D01*
X0642761Y0330536D01*
X0644729D01*
X0691320Y0342776D02*
X0690664Y0343432D01*
Y0344744D01*
X0691320Y0345400D01*
X0693944D01*
X0694600Y0344744D01*
Y0343432D01*
X0693944Y0342776D01*
X0692632D01*
Y0344088D01*
X0694600Y0341464D02*
X0690664D01*
X0694600Y0338840D01*
X0690664D01*
Y0337528D02*
X0694600D01*
Y0335561D01*
X0693944Y0334905D01*
X0691320D01*
X0690664Y0335561D01*
Y0337528D01*
X0652400Y0308468D02*
X0649776D01*
X0651088Y0309780D02*
Y0307156D01*
X0648464Y0309780D02*
X0647808Y0310436D01*
X0646496D01*
X0645840Y0309780D01*
Y0309124D01*
X0646496Y0308468D01*
X0647152D01*
X0646496D01*
X0645840Y0307812D01*
Y0307156D01*
X0646496Y0306500D01*
X0647808D01*
X0648464Y0307156D01*
X0644528Y0310436D02*
Y0307812D01*
X0643217Y0306500D01*
X0641905Y0307812D01*
Y0310436D01*
X0640593Y0309780D02*
X0639937Y0310436D01*
X0638625D01*
X0637969Y0309780D01*
Y0309124D01*
X0638625Y0308468D01*
X0639281D01*
X0638625D01*
X0637969Y0307812D01*
Y0307156D01*
X0638625Y0306500D01*
X0639937D01*
X0640593Y0307156D01*
X0649976Y0319180D02*
X0650632Y0319836D01*
X0651944D01*
X0652600Y0319180D01*
Y0318524D01*
X0651944Y0317868D01*
X0650632D01*
X0649976Y0317212D01*
Y0316556D01*
X0650632Y0315900D01*
X0651944D01*
X0652600Y0316556D01*
X0646040Y0319180D02*
X0646696Y0319836D01*
X0648008D01*
X0648664Y0319180D01*
Y0316556D01*
X0648008Y0315900D01*
X0646696D01*
X0646040Y0316556D01*
X0644729Y0319836D02*
Y0315900D01*
X0642105D01*
X0691320Y0309176D02*
X0690664Y0309832D01*
Y0311144D01*
X0691320Y0311800D01*
X0691976D01*
X0692632Y0311144D01*
Y0309832D01*
X0693288Y0309176D01*
X0693944D01*
X0694600Y0309832D01*
Y0311144D01*
X0693944Y0311800D01*
X0690664Y0307864D02*
X0694600D01*
Y0305896D01*
X0693944Y0305240D01*
X0691320D01*
X0690664Y0305896D01*
Y0307864D01*
X0694600Y0303928D02*
X0691976D01*
X0690664Y0302617D01*
X0691976Y0301305D01*
X0694600D01*
X0692632D01*
Y0303928D01*
X0690564Y0321200D02*
Y0318576D01*
Y0319888D01*
X0694500D01*
X0690564Y0317264D02*
X0694500Y0314640D01*
X0690564D02*
X0694500Y0317264D01*
Y0331600D02*
X0690564D01*
Y0329632D01*
X0691220Y0328976D01*
X0692532D01*
X0693188Y0329632D01*
Y0331600D01*
Y0330288D02*
X0694500Y0328976D01*
X0690564Y0327664D02*
X0694500Y0325040D01*
X0690564D02*
X0694500Y0327664D01*
X0691320Y0361976D02*
X0690664Y0362632D01*
Y0363944D01*
X0691320Y0364600D01*
X0693944D01*
X0694600Y0363944D01*
Y0362632D01*
X0693944Y0361976D01*
X0692632D01*
Y0363288D01*
X0694600Y0360664D02*
X0690664D01*
Y0358696D01*
X0691320Y0358040D01*
X0692632D01*
X0693288Y0358696D01*
Y0360664D01*
X0690664Y0356729D02*
Y0355417D01*
Y0356073D01*
X0694600D01*
Y0356729D01*
Y0355417D01*
X0690664Y0351481D02*
Y0352793D01*
X0691320Y0353449D01*
X0693944D01*
X0694600Y0352793D01*
Y0351481D01*
X0693944Y0350825D01*
X0691320D01*
X0690664Y0351481D01*
X0694600Y0349513D02*
Y0348201D01*
Y0348857D01*
X0690664D01*
X0691320Y0349513D01*
X0650176Y0349780D02*
X0650832Y0350436D01*
X0652144D01*
X0652800Y0349780D01*
Y0347156D01*
X0652144Y0346500D01*
X0650832D01*
X0650176Y0347156D01*
Y0348468D01*
X0651488D01*
X0648864Y0346500D02*
Y0350436D01*
X0646896D01*
X0646240Y0349780D01*
Y0348468D01*
X0646896Y0347812D01*
X0648864D01*
X0644929Y0350436D02*
X0643617D01*
X0644273D01*
Y0346500D01*
X0644929D01*
X0643617D01*
X0639681Y0350436D02*
X0640993D01*
X0641649Y0349780D01*
Y0347156D01*
X0640993Y0346500D01*
X0639681D01*
X0639025Y0347156D01*
Y0349780D01*
X0639681Y0350436D01*
X0635089Y0346500D02*
X0637713D01*
X0635089Y0349124D01*
Y0349780D01*
X0635745Y0350436D01*
X0637057D01*
X0637713Y0349780D01*
X0652700Y0336500D02*
X0651388D01*
X0652044D01*
Y0340436D01*
X0652700Y0339780D01*
X0646796Y0336500D02*
X0649420D01*
X0646796Y0339124D01*
Y0339780D01*
X0647452Y0340436D01*
X0648764D01*
X0649420Y0339780D01*
X0645484Y0340436D02*
Y0337812D01*
X0644173Y0336500D01*
X0642861Y0337812D01*
Y0340436D01*
X0689100Y0286136D02*
X0687788D01*
X0688444D01*
Y0282200D01*
X0689100D01*
X0687788D01*
X0683196Y0285480D02*
X0683852Y0286136D01*
X0685164D01*
X0685820Y0285480D01*
Y0282856D01*
X0685164Y0282200D01*
X0683852D01*
X0683196Y0282856D01*
X0681884Y0282200D02*
X0680573D01*
X0681228D01*
Y0286136D01*
X0681884Y0285480D01*
X0611800Y0350536D02*
Y0347912D01*
X0610488Y0346600D01*
X0609176Y0347912D01*
Y0350536D01*
X0607864Y0346600D02*
X0606552D01*
X0607208D01*
Y0350536D01*
X0607864Y0349880D01*
X0488300Y0364236D02*
Y0360300D01*
X0486332D01*
X0485676Y0360956D01*
Y0361612D01*
X0486332Y0362268D01*
X0488300D01*
X0486332D01*
X0485676Y0362924D01*
Y0363580D01*
X0486332Y0364236D01*
X0488300D01*
X0484364Y0360300D02*
X0483052D01*
X0483708D01*
Y0364236D01*
X0484364Y0363580D01*
X0598876Y0353180D02*
X0599532Y0353836D01*
X0600844D01*
X0601500Y0353180D01*
Y0350556D01*
X0600844Y0349900D01*
X0599532D01*
X0598876Y0350556D01*
X0597564Y0349900D02*
X0596252D01*
X0596908D01*
Y0353836D01*
X0597564Y0353180D01*
X0591376Y0381580D02*
X0592032Y0382236D01*
X0593344D01*
X0594000Y0381580D01*
Y0378956D01*
X0593344Y0378300D01*
X0592032D01*
X0591376Y0378956D01*
X0587440Y0378300D02*
X0590064D01*
X0587440Y0380924D01*
Y0381580D01*
X0588096Y0382236D01*
X0589408D01*
X0590064Y0381580D01*
X0592200Y0339836D02*
Y0335900D01*
X0590232D01*
X0589576Y0336556D01*
Y0339180D01*
X0590232Y0339836D01*
X0592200D01*
X0588264Y0335900D02*
X0586952D01*
X0587608D01*
Y0339836D01*
X0588264Y0339180D01*
D14*
X0652967Y0294494D02*
G03*
X0652967Y0294494I-0001272J0000000D01*
G01*
X0573400Y0377300D02*
X0593400D01*
Y0367100D02*
Y0377300D01*
X0573400Y0367100D02*
X0593400D01*
X0573400D02*
Y0377300D01*
X0428900Y0326065D02*
X0426567Y0321400D01*
X0424235Y0326065D01*
X0421902Y0327231D02*
X0420736Y0328398D01*
X0418403D01*
X0417237Y0327231D01*
Y0322566D01*
X0418403Y0321400D01*
X0420736D01*
X0421902Y0322566D01*
Y0327231D01*
X0414904Y0321400D02*
Y0322566D01*
X0413738D01*
Y0321400D01*
X0414904D01*
X0404408D02*
X0409073D01*
X0404408Y0326065D01*
Y0327231D01*
X0405574Y0328398D01*
X0407907D01*
X0409073Y0327231D01*
X0402075Y0321400D02*
Y0322566D01*
X0400909D01*
Y0321400D01*
X0402075D01*
X0396244D02*
X0393911D01*
X0395078D01*
Y0328398D01*
X0396244Y0327231D01*
X0428900Y0338898D02*
X0426567D01*
X0427734D01*
Y0331900D01*
X0428900D01*
X0426567D01*
X0423069D02*
Y0336565D01*
X0419570D01*
X0418403Y0335399D01*
Y0331900D01*
X0411406Y0336565D02*
X0414904D01*
X0416071Y0335399D01*
Y0333066D01*
X0414904Y0331900D01*
X0411406D01*
X0409073Y0336565D02*
Y0333066D01*
X0407907Y0331900D01*
X0404408D01*
Y0336565D01*
X0402075Y0338898D02*
Y0331900D01*
X0398576D01*
X0397410Y0333066D01*
Y0334233D01*
Y0335399D01*
X0398576Y0336565D01*
X0402075D01*
X0393911D02*
X0391579D01*
X0390412Y0335399D01*
Y0331900D01*
X0393911D01*
X0395078Y0333066D01*
X0393911Y0334233D01*
X0390412D01*
X0386914Y0337731D02*
Y0336565D01*
X0388080D01*
X0385747D01*
X0386914D01*
Y0333066D01*
X0385747Y0331900D01*
X0381082D02*
X0378749D01*
X0377583Y0333066D01*
Y0335399D01*
X0378749Y0336565D01*
X0381082D01*
X0382248Y0335399D01*
Y0333066D01*
X0381082Y0331900D01*
X0375251Y0336565D02*
Y0331900D01*
Y0334233D01*
X0374084Y0335399D01*
X0372918Y0336565D01*
X0371752D01*
X0356590Y0338898D02*
X0361255D01*
Y0335399D01*
X0358923D01*
X0361255D01*
Y0331900D01*
X0354257Y0336565D02*
Y0331900D01*
Y0334233D01*
X0353091Y0335399D01*
X0351925Y0336565D01*
X0350759D01*
X0346093Y0331900D02*
X0343761D01*
X0342595Y0333066D01*
Y0335399D01*
X0343761Y0336565D01*
X0346093D01*
X0347260Y0335399D01*
Y0333066D01*
X0346093Y0331900D01*
X0340262D02*
Y0336565D01*
X0336763D01*
X0335597Y0335399D01*
Y0331900D01*
X0332098Y0337731D02*
Y0336565D01*
X0333264D01*
X0330932D01*
X0332098D01*
Y0333066D01*
X0330932Y0331900D01*
X0327433Y0335399D02*
X0322768D01*
X0320435Y0331900D02*
Y0338898D01*
X0316936D01*
X0315770Y0337731D01*
Y0335399D01*
X0316936Y0334233D01*
X0320435D01*
X0308772Y0337731D02*
X0309938Y0338898D01*
X0312271D01*
X0313437Y0337731D01*
Y0333066D01*
X0312271Y0331900D01*
X0309938D01*
X0308772Y0333066D01*
X0306440Y0338898D02*
Y0331900D01*
X0302941D01*
X0301774Y0333066D01*
Y0334233D01*
X0302941Y0335399D01*
X0306440D01*
X0302941D01*
X0301774Y0336565D01*
Y0337731D01*
X0302941Y0338898D01*
X0306440D01*
X0428900Y0347998D02*
X0426567D01*
X0427734D01*
Y0341000D01*
X0428900D01*
X0426567D01*
X0423069D02*
Y0347998D01*
X0419570D01*
X0418403Y0346831D01*
Y0344499D01*
X0419570Y0343333D01*
X0423069D01*
X0420736D02*
X0418403Y0341000D01*
X0416071D02*
Y0347998D01*
X0411406Y0341000D01*
Y0347998D01*
X0409073Y0341000D02*
Y0345665D01*
X0406741Y0347998D01*
X0404408Y0345665D01*
Y0341000D01*
Y0344499D01*
X0409073D01*
X0397410Y0346831D02*
X0398576Y0347998D01*
X0400909D01*
X0402075Y0346831D01*
Y0345665D01*
X0400909Y0344499D01*
X0398576D01*
X0397410Y0343333D01*
Y0342166D01*
X0398576Y0341000D01*
X0400909D01*
X0402075Y0342166D01*
X0395078Y0341000D02*
Y0342166D01*
X0393911D01*
Y0341000D01*
X0395078D01*
X0385747D02*
X0388080D01*
X0389246Y0342166D01*
Y0344499D01*
X0388080Y0345665D01*
X0385747D01*
X0384581Y0344499D01*
Y0343333D01*
X0389246D01*
X0382248Y0345665D02*
Y0342166D01*
X0381082Y0341000D01*
X0377583D01*
Y0345665D01*
X0427400Y0309800D02*
Y0316798D01*
X0422735Y0309800D01*
Y0316798D01*
X0419236Y0309800D02*
X0416903D01*
X0415737Y0310966D01*
Y0313299D01*
X0416903Y0314465D01*
X0419236D01*
X0420402Y0313299D01*
Y0310966D01*
X0419236Y0309800D01*
X0203296Y0355087D02*
Y0350089D01*
X0202297Y0349089D01*
X0200297D01*
X0199298Y0350089D01*
Y0355087D01*
X0193299D02*
X0195299Y0354087D01*
X0197298Y0352088D01*
Y0350089D01*
X0196299Y0349089D01*
X0194299D01*
X0193299Y0350089D01*
Y0351088D01*
X0194299Y0352088D01*
X0197298D01*
D64*
X0586453Y0358080D02*
G03*
X0586453Y0358080I-0000197J0000000D01*
G01*
D65*
X0397583Y0313450D02*
D03*
M02*
