G04*
G04 #@! TF.GenerationSoftware,Altium Limited,Altium Designer,18.1.9 (240)*
G04*
G04 Layer_Color=8388736*
%FSAX25Y25*%
%MOIN*%
G70*
G01*
G75*
%ADD20R,0.03556X0.04147*%
%ADD21R,0.04737X0.03162*%
%ADD22R,0.04540X0.04147*%
%ADD23C,0.32296*%
%ADD24R,0.04147X0.04540*%
%ADD25O,0.16548X0.08674*%
%ADD26C,0.06706*%
%ADD27C,0.06710*%
%ADD28C,0.07296*%
%ADD29R,0.07296X0.07296*%
%ADD30R,0.06706X0.06706*%
%ADD31C,0.06706*%
D20*
X0654543Y0282343D02*
D03*
X0661039D02*
D03*
X0668161Y0282358D02*
D03*
X0674657D02*
D03*
X0592245Y0293600D02*
D03*
X0585749D02*
D03*
D21*
X0171112Y0347160D02*
D03*
Y0350900D02*
D03*
Y0354640D02*
D03*
X0160088Y0347160D02*
D03*
Y0350900D02*
D03*
Y0354640D02*
D03*
X0531012Y0343360D02*
D03*
Y0347100D02*
D03*
Y0350840D02*
D03*
X0519988Y0343360D02*
D03*
Y0347100D02*
D03*
Y0350840D02*
D03*
X0608112Y0343360D02*
D03*
Y0347100D02*
D03*
Y0350840D02*
D03*
X0597088Y0343360D02*
D03*
Y0347100D02*
D03*
Y0350840D02*
D03*
X0251012Y0344960D02*
D03*
Y0348700D02*
D03*
Y0352440D02*
D03*
X0239988Y0344960D02*
D03*
Y0348700D02*
D03*
Y0352440D02*
D03*
D22*
X0160100Y0333550D02*
D03*
Y0339850D02*
D03*
D23*
X0200700Y0327800D02*
D03*
X0559200Y0328200D02*
D03*
X0638300D02*
D03*
X0279510Y0327932D02*
D03*
D24*
X0164950Y0363100D02*
D03*
X0171250D02*
D03*
X0525850Y0335700D02*
D03*
X0519550D02*
D03*
X0525450Y0358300D02*
D03*
X0531750D02*
D03*
X0602250Y0359100D02*
D03*
X0608550D02*
D03*
X0603050Y0335800D02*
D03*
X0596750D02*
D03*
X0244850Y0360500D02*
D03*
X0251150D02*
D03*
X0245350Y0337600D02*
D03*
X0239050D02*
D03*
D25*
X0462598Y0371532D02*
D03*
X0380905D02*
D03*
X0380865Y0281768D02*
D03*
X0462598D02*
D03*
D26*
X0406535Y0374170D02*
D03*
X0319700Y0286437D02*
D03*
X0309700D02*
D03*
X0169700D02*
D03*
X0179700D02*
D03*
X0189700D02*
D03*
X0199700D02*
D03*
X0209700D02*
D03*
X0219700D02*
D03*
X0229700Y0286476D02*
D03*
X0299700Y0286437D02*
D03*
X0289700D02*
D03*
X0279700D02*
D03*
X0269700D02*
D03*
X0239700D02*
D03*
X0249700D02*
D03*
X0259700D02*
D03*
X0209700Y0368563D02*
D03*
X0219700D02*
D03*
X0229700D02*
D03*
X0239700D02*
D03*
X0249700D02*
D03*
X0259700D02*
D03*
X0269700D02*
D03*
X0279700D02*
D03*
X0289700D02*
D03*
X0299700D02*
D03*
X0309700D02*
D03*
X0319700D02*
D03*
D27*
X0416535Y0374131D02*
D03*
X0426535D02*
D03*
X0436574Y0374170D02*
D03*
D28*
X0677218Y0348183D02*
D03*
Y0338183D02*
D03*
Y0328183D02*
D03*
Y0318183D02*
D03*
Y0308183D02*
D03*
X0667218Y0348183D02*
D03*
Y0338183D02*
D03*
Y0328183D02*
D03*
Y0318183D02*
D03*
D29*
Y0308183D02*
D03*
D30*
X0588300Y0372100D02*
D03*
X0578000Y0285000D02*
D03*
X0602300Y0284900D02*
D03*
X0493800Y0285600D02*
D03*
D31*
X0578300Y0372100D02*
D03*
X0568000Y0285000D02*
D03*
X0558000D02*
D03*
X0612300Y0284900D02*
D03*
X0622300D02*
D03*
X0200700Y0327800D02*
D03*
X0559200Y0328200D02*
D03*
X0638300D02*
D03*
X0279510Y0327932D02*
D03*
X0543800Y0285600D02*
D03*
X0533800D02*
D03*
X0523800D02*
D03*
X0513800D02*
D03*
X0503800D02*
D03*
M02*
