G04*
G04 #@! TF.GenerationSoftware,Altium Limited,Altium Designer,18.1.9 (240)*
G04*
G04 Layer_Physical_Order=2*
G04 Layer_Color=16711680*
%FSAX25Y25*%
%MOIN*%
G70*
G01*
G75*
%ADD14C,0.01000*%
%ADD17R,0.03740X0.03347*%
%ADD32C,0.01200*%
%ADD33C,0.02953*%
%ADD34C,0.02500*%
%ADD35C,0.00800*%
%ADD36C,0.03000*%
%ADD37O,0.15748X0.07874*%
%ADD38C,0.05906*%
%ADD39C,0.05910*%
%ADD40C,0.06496*%
%ADD41R,0.06496X0.06496*%
%ADD42R,0.05906X0.05906*%
%ADD43C,0.05906*%
%ADD44C,0.01968*%
%ADD45C,0.05000*%
%ADD46R,0.05512X0.10630*%
%ADD47R,0.04724X0.04724*%
%ADD48R,0.10236X0.05906*%
%ADD49R,0.10236X0.03937*%
%ADD50R,0.07874X0.02756*%
%ADD51R,0.11221X0.04921*%
%ADD52R,0.25591X0.21850*%
%ADD53R,0.04724X0.04724*%
%ADD54R,0.15748X0.11811*%
G36*
X0688632Y0381815D02*
X0689882Y0381436D01*
X0691034Y0380820D01*
X0692043Y0379992D01*
X0692872Y0378982D01*
X0693487Y0377831D01*
X0693866Y0376581D01*
X0693993Y0375299D01*
X0693989Y0375281D01*
Y0280399D01*
X0693993Y0280381D01*
X0693866Y0279099D01*
X0693487Y0277849D01*
X0692872Y0276698D01*
X0692043Y0275688D01*
X0691034Y0274859D01*
X0689882Y0274244D01*
X0688632Y0273865D01*
X0687351Y0273738D01*
X0687332Y0273742D01*
X0680570D01*
X0680378Y0274204D01*
X0688837Y0282663D01*
X0689125Y0283093D01*
X0689225Y0283600D01*
Y0317501D01*
X0689125Y0318008D01*
X0688837Y0318438D01*
X0680865Y0326410D01*
X0681162Y0327126D01*
X0681301Y0328183D01*
X0681162Y0329239D01*
X0680754Y0330224D01*
X0680105Y0331070D01*
X0679260Y0331719D01*
X0678275Y0332126D01*
X0677218Y0332266D01*
X0676161Y0332126D01*
X0675177Y0331719D01*
X0674331Y0331070D01*
X0673682Y0330224D01*
X0673274Y0329239D01*
X0673135Y0328183D01*
X0673274Y0327126D01*
X0673682Y0326141D01*
X0674331Y0325296D01*
X0675177Y0324647D01*
X0676161Y0324239D01*
X0677218Y0324100D01*
X0678275Y0324239D01*
X0678991Y0324535D01*
X0683556Y0319970D01*
X0683365Y0319508D01*
X0681051D01*
X0680754Y0320224D01*
X0680105Y0321070D01*
X0679260Y0321719D01*
X0678275Y0322127D01*
X0677218Y0322266D01*
X0676161Y0322127D01*
X0675177Y0321719D01*
X0674331Y0321070D01*
X0673682Y0320224D01*
X0673274Y0319239D01*
X0673135Y0318183D01*
X0673274Y0317126D01*
X0673682Y0316141D01*
X0674331Y0315296D01*
X0675177Y0314647D01*
X0676161Y0314239D01*
X0677218Y0314100D01*
X0678275Y0314239D01*
X0679260Y0314647D01*
X0680105Y0315296D01*
X0680754Y0316141D01*
X0681051Y0316857D01*
X0683841D01*
X0684575Y0316123D01*
Y0284977D01*
X0677423Y0277825D01*
X0518629D01*
X0518362Y0278326D01*
X0518481Y0278504D01*
X0518619Y0279200D01*
X0518481Y0279896D01*
X0518276Y0280202D01*
X0521006Y0282931D01*
X0521124Y0282924D01*
X0521907Y0282322D01*
X0522820Y0281944D01*
X0523800Y0281815D01*
X0524780Y0281944D01*
X0525693Y0282322D01*
X0526476Y0282924D01*
X0527078Y0283707D01*
X0527456Y0284620D01*
X0527585Y0285600D01*
X0527456Y0286580D01*
X0527078Y0287493D01*
X0526476Y0288277D01*
X0525693Y0288878D01*
X0524780Y0289256D01*
X0523800Y0289385D01*
X0522820Y0289256D01*
X0521907Y0288878D01*
X0521124Y0288277D01*
X0520522Y0287493D01*
X0520144Y0286580D01*
X0520028Y0285703D01*
X0515863Y0281537D01*
X0515575Y0281107D01*
X0515475Y0280600D01*
Y0280428D01*
X0515119Y0279896D01*
X0514981Y0279200D01*
X0515119Y0278504D01*
X0515238Y0278326D01*
X0514971Y0277825D01*
X0507449D01*
X0505426Y0279849D01*
Y0282211D01*
X0505693Y0282322D01*
X0506476Y0282924D01*
X0507078Y0283707D01*
X0507456Y0284620D01*
X0507585Y0285600D01*
X0507456Y0286580D01*
X0507078Y0287493D01*
X0506476Y0288277D01*
X0505693Y0288878D01*
X0504780Y0289256D01*
X0503800Y0289385D01*
X0502820Y0289256D01*
X0501907Y0288878D01*
X0501124Y0288277D01*
X0500522Y0287493D01*
X0500144Y0286580D01*
X0500015Y0285600D01*
X0500144Y0284620D01*
X0500522Y0283707D01*
X0501124Y0282924D01*
X0501907Y0282322D01*
X0502774Y0281963D01*
Y0280310D01*
X0481965D01*
X0471337Y0290937D01*
X0470907Y0291225D01*
X0470400Y0291325D01*
X0365100D01*
X0364593Y0291225D01*
X0364163Y0290937D01*
X0350851Y0277625D01*
X0315395D01*
X0311026Y0281995D01*
Y0282924D01*
X0311593Y0283159D01*
X0312376Y0283760D01*
X0312978Y0284544D01*
X0313356Y0285457D01*
X0313485Y0286437D01*
X0313356Y0287417D01*
X0312978Y0288330D01*
X0312376Y0289113D01*
X0311671Y0289655D01*
X0311710Y0289957D01*
X0311806Y0290155D01*
X0317594D01*
X0317690Y0289957D01*
X0317729Y0289655D01*
X0317023Y0289113D01*
X0316422Y0288330D01*
X0316044Y0287417D01*
X0315915Y0286437D01*
X0316044Y0285457D01*
X0316422Y0284544D01*
X0317023Y0283760D01*
X0317807Y0283159D01*
X0318720Y0282781D01*
X0319700Y0282652D01*
X0320680Y0282781D01*
X0321593Y0283159D01*
X0322376Y0283760D01*
X0322978Y0284544D01*
X0323356Y0285457D01*
X0323485Y0286437D01*
X0323356Y0287417D01*
X0322978Y0288330D01*
X0322376Y0289113D01*
X0321671Y0289655D01*
X0321710Y0289957D01*
X0321806Y0290155D01*
X0343700D01*
X0344597Y0290333D01*
X0345358Y0290842D01*
X0348289Y0293773D01*
X0348300Y0293772D01*
X0349162Y0293885D01*
X0349964Y0294217D01*
X0350654Y0294746D01*
X0351183Y0295436D01*
X0351515Y0296238D01*
X0351628Y0297100D01*
X0351515Y0297961D01*
X0351183Y0298764D01*
X0350654Y0299454D01*
X0349964Y0299983D01*
X0349162Y0300315D01*
X0348300Y0300429D01*
X0347439Y0300315D01*
X0346636Y0299983D01*
X0345946Y0299454D01*
X0345417Y0298764D01*
X0345085Y0297961D01*
X0344971Y0297100D01*
X0344973Y0297089D01*
X0342729Y0294845D01*
X0258166D01*
X0257974Y0295345D01*
X0258281Y0295804D01*
X0258419Y0296500D01*
X0258281Y0297196D01*
X0257886Y0297786D01*
X0257296Y0298181D01*
X0256600Y0298319D01*
X0255904Y0298181D01*
X0255372Y0297826D01*
X0210794D01*
X0210721Y0298320D01*
X0210833Y0298354D01*
X0213692Y0299538D01*
X0216421Y0300997D01*
X0218994Y0302716D01*
X0221386Y0304679D01*
X0223574Y0306868D01*
X0225537Y0309260D01*
X0227257Y0311833D01*
X0228716Y0314562D01*
X0229900Y0317421D01*
X0230798Y0320382D01*
X0231402Y0323418D01*
X0231705Y0326497D01*
Y0329592D01*
X0231402Y0332672D01*
X0230798Y0335707D01*
X0229900Y0338668D01*
X0228716Y0341527D01*
X0227257Y0344256D01*
X0225537Y0346829D01*
X0223574Y0349221D01*
X0221386Y0351410D01*
X0218994Y0353373D01*
X0216421Y0355092D01*
X0213692Y0356551D01*
X0210833Y0357735D01*
X0207871Y0358634D01*
X0204836Y0359237D01*
X0201756Y0359541D01*
X0198662D01*
X0195582Y0359237D01*
X0192547Y0358634D01*
X0189586Y0357735D01*
X0186727Y0356551D01*
X0183997Y0355092D01*
X0181424Y0353373D01*
X0179032Y0351410D01*
X0176844Y0349221D01*
X0174881Y0346829D01*
X0173161Y0344256D01*
X0171703Y0341527D01*
X0171623Y0341334D01*
X0171522Y0341277D01*
X0171032Y0341189D01*
X0170596Y0341481D01*
X0169900Y0341619D01*
X0169204Y0341481D01*
X0168614Y0341086D01*
X0168219Y0340496D01*
X0168081Y0339800D01*
X0168219Y0339104D01*
X0168614Y0338514D01*
X0169204Y0338119D01*
X0169794Y0338002D01*
X0170189Y0337582D01*
X0169620Y0335707D01*
X0169016Y0332672D01*
X0168713Y0329592D01*
Y0327109D01*
X0168213Y0326703D01*
X0168100Y0326726D01*
X0162173D01*
Y0331647D01*
X0152699D01*
Y0327291D01*
Y0322961D01*
Y0318630D01*
Y0314299D01*
Y0309968D01*
X0162173D01*
Y0311121D01*
X0164104D01*
X0173374Y0301851D01*
Y0288634D01*
X0172874Y0288464D01*
X0172377Y0289113D01*
X0171593Y0289715D01*
X0170680Y0290093D01*
X0169700Y0290222D01*
X0168720Y0290093D01*
X0167807Y0289715D01*
X0167024Y0289113D01*
X0166422Y0288330D01*
X0166044Y0287417D01*
X0165915Y0286437D01*
X0166044Y0285457D01*
X0166422Y0284544D01*
X0167024Y0283760D01*
X0167807Y0283159D01*
X0168720Y0282781D01*
X0169700Y0282652D01*
X0170680Y0282781D01*
X0171593Y0283159D01*
X0172377Y0283760D01*
X0172874Y0284410D01*
X0173374Y0284240D01*
Y0282900D01*
X0173475Y0282393D01*
X0173763Y0281963D01*
X0177238Y0278487D01*
X0177047Y0278026D01*
X0166449D01*
X0164025Y0280449D01*
Y0282572D01*
X0164381Y0283104D01*
X0164519Y0283800D01*
X0164381Y0284496D01*
X0163986Y0285086D01*
X0163396Y0285481D01*
X0162700Y0285619D01*
X0162004Y0285481D01*
X0161883Y0285400D01*
X0161421Y0285592D01*
X0161381Y0285796D01*
X0160986Y0286386D01*
X0160396Y0286781D01*
X0159700Y0286919D01*
X0159004Y0286781D01*
X0158414Y0286386D01*
X0158019Y0285796D01*
X0157881Y0285100D01*
X0158019Y0284404D01*
X0158375Y0283872D01*
Y0279500D01*
X0158475Y0278993D01*
X0158763Y0278563D01*
X0163083Y0274242D01*
X0162876Y0273742D01*
X0151899D01*
X0151881Y0273738D01*
X0150599Y0273865D01*
X0149349Y0274244D01*
X0148198Y0274859D01*
X0147188Y0275688D01*
X0146359Y0276698D01*
X0145744Y0277849D01*
X0145365Y0279099D01*
X0145238Y0280381D01*
X0145242Y0280399D01*
Y0375281D01*
X0145238Y0375299D01*
X0145365Y0376581D01*
X0145744Y0377831D01*
X0146359Y0378982D01*
X0147188Y0379992D01*
X0148198Y0380820D01*
X0149349Y0381436D01*
X0150599Y0381815D01*
X0151881Y0381942D01*
X0151899Y0381938D01*
X0687332D01*
X0687351Y0381942D01*
X0688632Y0381815D01*
D02*
G37*
G36*
X0267690Y0289957D02*
X0267729Y0289655D01*
X0267023Y0289113D01*
X0266422Y0288330D01*
X0266044Y0287417D01*
X0265915Y0286437D01*
X0266044Y0285457D01*
X0266422Y0284544D01*
X0266790Y0284065D01*
X0262551Y0279825D01*
X0179649D01*
X0176025Y0283449D01*
Y0284240D01*
X0176525Y0284410D01*
X0177023Y0283760D01*
X0177807Y0283159D01*
X0178720Y0282781D01*
X0179700Y0282652D01*
X0180680Y0282781D01*
X0181593Y0283159D01*
X0182377Y0283760D01*
X0182978Y0284544D01*
X0183356Y0285457D01*
X0183485Y0286437D01*
X0183356Y0287417D01*
X0182978Y0288330D01*
X0182515Y0288933D01*
X0183737Y0290155D01*
X0187594D01*
X0187690Y0289957D01*
X0187729Y0289655D01*
X0187023Y0289113D01*
X0186422Y0288330D01*
X0186044Y0287417D01*
X0185915Y0286437D01*
X0186044Y0285457D01*
X0186422Y0284544D01*
X0187023Y0283760D01*
X0187807Y0283159D01*
X0188720Y0282781D01*
X0189700Y0282652D01*
X0190680Y0282781D01*
X0191593Y0283159D01*
X0192376Y0283760D01*
X0192978Y0284544D01*
X0193356Y0285457D01*
X0193485Y0286437D01*
X0193356Y0287417D01*
X0192978Y0288330D01*
X0192376Y0289113D01*
X0191671Y0289655D01*
X0191710Y0289957D01*
X0191806Y0290155D01*
X0207594D01*
X0207690Y0289957D01*
X0207729Y0289655D01*
X0207024Y0289113D01*
X0206422Y0288330D01*
X0206044Y0287417D01*
X0205915Y0286437D01*
X0206044Y0285457D01*
X0206422Y0284544D01*
X0207024Y0283760D01*
X0207807Y0283159D01*
X0208720Y0282781D01*
X0209700Y0282652D01*
X0210680Y0282781D01*
X0211593Y0283159D01*
X0212376Y0283760D01*
X0212978Y0284544D01*
X0213356Y0285457D01*
X0213485Y0286437D01*
X0213356Y0287417D01*
X0212978Y0288330D01*
X0212376Y0289113D01*
X0211671Y0289655D01*
X0211710Y0289957D01*
X0211806Y0290155D01*
X0217594D01*
X0217690Y0289957D01*
X0217729Y0289655D01*
X0217023Y0289113D01*
X0216422Y0288330D01*
X0216044Y0287417D01*
X0215915Y0286437D01*
X0216044Y0285457D01*
X0216422Y0284544D01*
X0217023Y0283760D01*
X0217807Y0283159D01*
X0218720Y0282781D01*
X0219700Y0282652D01*
X0220680Y0282781D01*
X0221593Y0283159D01*
X0222376Y0283760D01*
X0222978Y0284544D01*
X0223356Y0285457D01*
X0223485Y0286437D01*
X0223356Y0287417D01*
X0222978Y0288330D01*
X0222376Y0289113D01*
X0221671Y0289655D01*
X0221710Y0289957D01*
X0221806Y0290155D01*
X0227518D01*
X0227678Y0289655D01*
X0227024Y0289153D01*
X0226422Y0288369D01*
X0226044Y0287456D01*
X0225915Y0286476D01*
X0226044Y0285497D01*
X0226422Y0284584D01*
X0227024Y0283800D01*
X0227807Y0283198D01*
X0228720Y0282820D01*
X0229700Y0282691D01*
X0230680Y0282820D01*
X0231593Y0283198D01*
X0232377Y0283800D01*
X0232978Y0284584D01*
X0233356Y0285497D01*
X0233485Y0286476D01*
X0233356Y0287456D01*
X0232978Y0288369D01*
X0232377Y0289153D01*
X0231722Y0289655D01*
X0231883Y0290155D01*
X0237594D01*
X0237690Y0289957D01*
X0237729Y0289655D01*
X0237023Y0289113D01*
X0236422Y0288330D01*
X0236044Y0287417D01*
X0235915Y0286437D01*
X0236044Y0285457D01*
X0236422Y0284544D01*
X0237023Y0283760D01*
X0237807Y0283159D01*
X0238720Y0282781D01*
X0239700Y0282652D01*
X0240680Y0282781D01*
X0241593Y0283159D01*
X0242376Y0283760D01*
X0242978Y0284544D01*
X0243356Y0285457D01*
X0243485Y0286437D01*
X0243356Y0287417D01*
X0242978Y0288330D01*
X0242376Y0289113D01*
X0241671Y0289655D01*
X0241710Y0289957D01*
X0241806Y0290155D01*
X0247594D01*
X0247690Y0289957D01*
X0247729Y0289655D01*
X0247024Y0289113D01*
X0246422Y0288330D01*
X0246044Y0287417D01*
X0245915Y0286437D01*
X0246044Y0285457D01*
X0246422Y0284544D01*
X0247024Y0283760D01*
X0247807Y0283159D01*
X0248720Y0282781D01*
X0249700Y0282652D01*
X0250680Y0282781D01*
X0251593Y0283159D01*
X0252377Y0283760D01*
X0252978Y0284544D01*
X0253356Y0285457D01*
X0253485Y0286437D01*
X0253356Y0287417D01*
X0252978Y0288330D01*
X0252377Y0289113D01*
X0251671Y0289655D01*
X0251710Y0289957D01*
X0251806Y0290155D01*
X0257594D01*
X0257690Y0289957D01*
X0257729Y0289655D01*
X0257024Y0289113D01*
X0256422Y0288330D01*
X0256044Y0287417D01*
X0255915Y0286437D01*
X0256044Y0285457D01*
X0256422Y0284544D01*
X0257024Y0283760D01*
X0257807Y0283159D01*
X0258720Y0282781D01*
X0259700Y0282652D01*
X0260680Y0282781D01*
X0261593Y0283159D01*
X0262376Y0283760D01*
X0262978Y0284544D01*
X0263356Y0285457D01*
X0263485Y0286437D01*
X0263356Y0287417D01*
X0262978Y0288330D01*
X0262376Y0289113D01*
X0261671Y0289655D01*
X0261710Y0289957D01*
X0261806Y0290155D01*
X0267594D01*
X0267690Y0289957D01*
D02*
G37*
G36*
X0480478Y0278047D02*
X0480908Y0277760D01*
X0481416Y0277659D01*
X0494739D01*
X0495072Y0277159D01*
X0494981Y0276700D01*
X0495055Y0276325D01*
X0494683Y0275826D01*
X0353453D01*
X0353262Y0276287D01*
X0365649Y0288674D01*
X0469851D01*
X0480478Y0278047D01*
D02*
G37*
%LPC*%
G36*
X0601270Y0381023D02*
X0595930D01*
Y0380895D01*
X0569850D01*
X0569850Y0380895D01*
X0568952Y0380716D01*
X0568191Y0380208D01*
X0568191Y0380208D01*
X0567329Y0379345D01*
X0566431D01*
X0566177Y0379677D01*
X0565393Y0380278D01*
X0564480Y0380656D01*
X0563500Y0380785D01*
X0562520Y0380656D01*
X0561607Y0380278D01*
X0560823Y0379677D01*
X0560222Y0378893D01*
X0559844Y0377980D01*
X0559715Y0377000D01*
X0559844Y0376020D01*
X0560222Y0375107D01*
X0560823Y0374324D01*
X0561607Y0373722D01*
X0562520Y0373344D01*
X0563500Y0373215D01*
X0564480Y0373344D01*
X0565393Y0373722D01*
X0566177Y0374324D01*
X0566431Y0374655D01*
X0568300D01*
X0569197Y0374833D01*
X0569958Y0375342D01*
X0570821Y0376204D01*
X0577096D01*
X0577196Y0375705D01*
X0576407Y0375378D01*
X0575624Y0374777D01*
X0575022Y0373993D01*
X0574644Y0373080D01*
X0574515Y0372100D01*
X0574644Y0371120D01*
X0575022Y0370207D01*
X0575624Y0369424D01*
X0575955Y0369169D01*
Y0356588D01*
X0576101Y0355852D01*
X0575687Y0355527D01*
X0575659Y0355546D01*
X0572929Y0357005D01*
X0570071Y0358189D01*
X0567109Y0359088D01*
X0564074Y0359691D01*
X0560994Y0359995D01*
X0557900D01*
X0554820Y0359691D01*
X0551785Y0359088D01*
X0548823Y0358189D01*
X0545964Y0357005D01*
X0543235Y0355546D01*
X0540662Y0353827D01*
X0538270Y0351864D01*
X0536082Y0349675D01*
X0534119Y0347283D01*
X0532399Y0344710D01*
X0530940Y0341981D01*
X0529756Y0339122D01*
X0528858Y0336161D01*
X0528254Y0333126D01*
X0528038Y0330925D01*
X0521749D01*
X0521105Y0331569D01*
X0520981Y0332196D01*
X0520586Y0332786D01*
X0519996Y0333181D01*
X0519300Y0333319D01*
X0518604Y0333181D01*
X0518014Y0332786D01*
X0517619Y0332196D01*
X0517481Y0331500D01*
X0517619Y0330804D01*
X0518014Y0330214D01*
X0518604Y0329819D01*
X0519231Y0329695D01*
X0519512Y0329413D01*
X0519487Y0329263D01*
X0519293Y0328925D01*
X0387328D01*
X0386796Y0329281D01*
X0386100Y0329419D01*
X0385404Y0329281D01*
X0384814Y0328886D01*
X0384419Y0328296D01*
X0383926Y0328377D01*
Y0329451D01*
X0385337Y0330863D01*
X0385625Y0331293D01*
X0385725Y0331800D01*
Y0332172D01*
X0386081Y0332704D01*
X0386219Y0333400D01*
X0386081Y0334096D01*
X0385686Y0334686D01*
X0385096Y0335081D01*
X0384400Y0335219D01*
X0383704Y0335081D01*
X0383114Y0334686D01*
X0382719Y0334096D01*
X0382581Y0333400D01*
X0382719Y0332704D01*
X0383004Y0332278D01*
X0381663Y0330937D01*
X0381375Y0330507D01*
X0381275Y0330000D01*
Y0326200D01*
X0381375Y0325693D01*
X0381663Y0325263D01*
X0382963Y0323963D01*
X0383393Y0323675D01*
X0383900Y0323574D01*
X0518751D01*
X0540978Y0301347D01*
X0541408Y0301060D01*
X0541916Y0300959D01*
X0544156D01*
X0545349Y0300321D01*
X0545224Y0299821D01*
X0529449D01*
X0529177Y0300177D01*
X0528393Y0300778D01*
X0527480Y0301156D01*
X0526500Y0301285D01*
X0525520Y0301156D01*
X0524607Y0300778D01*
X0523823Y0300177D01*
X0523222Y0299393D01*
X0522844Y0298480D01*
X0522715Y0297500D01*
X0522274Y0297021D01*
X0443861D01*
X0435127Y0305756D01*
X0435185Y0306200D01*
X0435056Y0307180D01*
X0434678Y0308093D01*
X0434076Y0308876D01*
X0433293Y0309478D01*
X0432380Y0309856D01*
X0431400Y0309985D01*
X0430420Y0309856D01*
X0429507Y0309478D01*
X0428723Y0308876D01*
X0428122Y0308093D01*
X0427744Y0307180D01*
X0427615Y0306200D01*
X0427744Y0305220D01*
X0428122Y0304307D01*
X0428723Y0303523D01*
X0429507Y0302922D01*
X0430420Y0302544D01*
X0431400Y0302415D01*
X0431844Y0302473D01*
X0441259Y0293059D01*
X0442012Y0292556D01*
X0442900Y0292379D01*
X0523700D01*
X0524588Y0292556D01*
X0525341Y0293059D01*
X0526056Y0293773D01*
X0526500Y0293715D01*
X0527480Y0293844D01*
X0528393Y0294222D01*
X0529177Y0294824D01*
X0529449Y0295179D01*
X0539879D01*
Y0287200D01*
X0540056Y0286312D01*
X0540100Y0286246D01*
X0540015Y0285600D01*
X0540144Y0284620D01*
X0540522Y0283707D01*
X0541123Y0282924D01*
X0541907Y0282322D01*
X0542820Y0281944D01*
X0543800Y0281815D01*
X0544780Y0281944D01*
X0545693Y0282322D01*
X0546477Y0282924D01*
X0547078Y0283707D01*
X0547456Y0284620D01*
X0547585Y0285600D01*
X0547456Y0286580D01*
X0547078Y0287493D01*
X0546477Y0288277D01*
X0545693Y0288878D01*
X0544780Y0289256D01*
X0544521Y0289290D01*
Y0295179D01*
X0564539D01*
X0574247Y0285470D01*
Y0281247D01*
X0581753D01*
Y0282679D01*
X0598547D01*
Y0281147D01*
X0606053D01*
Y0287770D01*
X0609561Y0291279D01*
X0610821D01*
X0610846Y0291246D01*
X0611536Y0290718D01*
X0612338Y0290385D01*
X0613200Y0290271D01*
X0614061Y0290385D01*
X0614864Y0290718D01*
X0615554Y0291246D01*
X0615579Y0291279D01*
X0652635D01*
X0653524Y0291456D01*
X0654277Y0291959D01*
X0666452Y0304135D01*
X0671266D01*
Y0312231D01*
X0665673D01*
X0665438Y0312672D01*
X0665688Y0313045D01*
X0666315Y0314219D01*
X0667218Y0314100D01*
X0668275Y0314239D01*
X0669260Y0314647D01*
X0670105Y0315296D01*
X0670754Y0316141D01*
X0671162Y0317126D01*
X0671301Y0318183D01*
X0671162Y0319239D01*
X0670754Y0320224D01*
X0670105Y0321070D01*
X0669260Y0321719D01*
X0669254Y0321721D01*
X0669833Y0324630D01*
X0670136Y0327710D01*
Y0330804D01*
X0669833Y0333884D01*
X0669625Y0334927D01*
X0670105Y0335296D01*
X0670754Y0336141D01*
X0671162Y0337126D01*
X0671301Y0338183D01*
X0671162Y0339239D01*
X0670754Y0340224D01*
X0670105Y0341070D01*
X0669260Y0341719D01*
X0668275Y0342126D01*
X0667350Y0342248D01*
X0667146Y0342740D01*
X0666617Y0343730D01*
X0666901Y0344141D01*
X0667218Y0344100D01*
X0668275Y0344239D01*
X0669260Y0344647D01*
X0670105Y0345296D01*
X0670754Y0346141D01*
X0671162Y0347126D01*
X0671301Y0348183D01*
X0671162Y0349239D01*
X0670754Y0350224D01*
X0670105Y0351070D01*
X0669260Y0351719D01*
X0668275Y0352127D01*
X0667218Y0352266D01*
X0666161Y0352127D01*
X0665177Y0351719D01*
X0664331Y0351070D01*
X0663682Y0350224D01*
X0663394Y0349529D01*
X0662818Y0349444D01*
X0662005Y0350434D01*
X0659817Y0352622D01*
X0657425Y0354586D01*
X0654852Y0356305D01*
X0652122Y0357764D01*
X0649263Y0358948D01*
X0646302Y0359846D01*
X0643267Y0360450D01*
X0640187Y0360753D01*
X0637093D01*
X0634013Y0360450D01*
X0630978Y0359846D01*
X0628016Y0358948D01*
X0625157Y0357764D01*
X0622428Y0356305D01*
X0620453Y0354985D01*
X0619953Y0355252D01*
Y0361445D01*
X0607132D01*
Y0360529D01*
X0601170D01*
Y0360724D01*
X0595830D01*
Y0360529D01*
X0590796D01*
X0589899Y0360351D01*
X0589138Y0359842D01*
X0588754Y0359458D01*
X0588630Y0359274D01*
X0586638D01*
Y0352950D01*
X0592962D01*
Y0355839D01*
X0595830D01*
Y0355777D01*
X0601170D01*
Y0355839D01*
X0607132D01*
Y0354924D01*
X0619479D01*
X0619658Y0354424D01*
X0618222Y0353245D01*
X0595612D01*
X0594714Y0353067D01*
X0593954Y0352558D01*
X0589800Y0348405D01*
X0580645Y0357559D01*
Y0369169D01*
X0580976Y0369424D01*
X0581578Y0370207D01*
X0581956Y0371120D01*
X0582085Y0372100D01*
X0581956Y0373080D01*
X0581578Y0373993D01*
X0580976Y0374777D01*
X0580193Y0375378D01*
X0579404Y0375705D01*
X0579504Y0376204D01*
X0595930D01*
Y0376076D01*
X0601270D01*
Y0376204D01*
X0607132D01*
Y0372876D01*
X0619953D01*
Y0379398D01*
X0611719D01*
X0610909Y0380208D01*
X0610148Y0380716D01*
X0609250Y0380895D01*
X0601270D01*
Y0381023D01*
D02*
G37*
G36*
X0406535Y0377955D02*
X0405555Y0377826D01*
X0404642Y0377448D01*
X0403858Y0376847D01*
X0403257Y0376063D01*
X0402879Y0375150D01*
X0402749Y0374170D01*
X0402879Y0373190D01*
X0403257Y0372277D01*
X0403858Y0371494D01*
X0404642Y0370892D01*
X0405555Y0370514D01*
X0406535Y0370385D01*
X0407514Y0370514D01*
X0408427Y0370892D01*
X0409211Y0371494D01*
X0409813Y0372277D01*
X0410191Y0373190D01*
X0410320Y0374170D01*
X0410191Y0375150D01*
X0409813Y0376063D01*
X0409211Y0376847D01*
X0408427Y0377448D01*
X0407514Y0377826D01*
X0406535Y0377955D01*
D02*
G37*
G36*
X0519700Y0379585D02*
X0518720Y0379456D01*
X0517807Y0379078D01*
X0517024Y0378477D01*
X0516422Y0377693D01*
X0516172Y0377088D01*
X0495192Y0356108D01*
X0494679Y0356302D01*
X0494609Y0356651D01*
X0494581Y0356796D01*
X0494922Y0357185D01*
X0495096Y0357219D01*
X0495686Y0357614D01*
X0496081Y0358204D01*
X0496219Y0358900D01*
X0496081Y0359596D01*
X0495686Y0360186D01*
X0495096Y0360581D01*
X0494400Y0360719D01*
X0493704Y0360581D01*
X0493172Y0360226D01*
X0491800D01*
X0491293Y0360125D01*
X0490863Y0359837D01*
X0475751Y0344725D01*
X0474176D01*
X0473890Y0345107D01*
Y0358518D01*
X0458256D01*
X0456437Y0360337D01*
X0456007Y0360625D01*
X0455500Y0360725D01*
X0423257D01*
X0423066Y0361187D01*
X0433403Y0371525D01*
X0433896Y0371492D01*
X0434680Y0370890D01*
X0435594Y0370512D01*
X0436574Y0370383D01*
X0437554Y0370512D01*
X0438468Y0370890D01*
X0439252Y0371492D01*
X0439854Y0372276D01*
X0440232Y0373190D01*
X0440361Y0374170D01*
X0440232Y0375150D01*
X0439854Y0376064D01*
X0439252Y0376848D01*
X0438468Y0377450D01*
X0437554Y0377828D01*
X0436574Y0377957D01*
X0435594Y0377828D01*
X0434680Y0377450D01*
X0433896Y0376848D01*
X0433294Y0376064D01*
X0432916Y0375150D01*
X0432861Y0374731D01*
X0430348Y0372218D01*
X0429924Y0372502D01*
X0430193Y0373150D01*
X0430322Y0374131D01*
X0430193Y0375111D01*
X0429814Y0376024D01*
X0429213Y0376809D01*
X0428428Y0377411D01*
X0427515Y0377789D01*
X0426535Y0377918D01*
X0425555Y0377789D01*
X0424641Y0377411D01*
X0423857Y0376809D01*
X0423255Y0376024D01*
X0422877Y0375111D01*
X0422748Y0374131D01*
X0422877Y0373150D01*
X0423255Y0372237D01*
X0423509Y0371906D01*
Y0368829D01*
X0419405Y0364725D01*
X0332849D01*
X0323622Y0373953D01*
X0323191Y0374240D01*
X0322684Y0374341D01*
X0314153D01*
X0313646Y0374240D01*
X0313215Y0373953D01*
X0311247Y0371984D01*
X0310680Y0372219D01*
X0309700Y0372348D01*
X0308720Y0372219D01*
X0307807Y0371841D01*
X0307024Y0371239D01*
X0306422Y0370456D01*
X0306044Y0369543D01*
X0305915Y0368563D01*
X0306044Y0367583D01*
X0306422Y0366670D01*
X0307024Y0365886D01*
X0307807Y0365285D01*
X0308720Y0364907D01*
X0309700Y0364778D01*
X0310680Y0364907D01*
X0311593Y0365285D01*
X0312376Y0365886D01*
X0312978Y0366670D01*
X0313356Y0367583D01*
X0313485Y0368563D01*
X0313356Y0369543D01*
X0313121Y0370110D01*
X0314702Y0371690D01*
X0316870D01*
X0316897Y0371613D01*
X0316986Y0371190D01*
X0316422Y0370456D01*
X0316044Y0369543D01*
X0315915Y0368563D01*
X0316044Y0367583D01*
X0316422Y0366670D01*
X0317023Y0365886D01*
X0317807Y0365285D01*
X0318720Y0364907D01*
X0319700Y0364778D01*
X0320680Y0364907D01*
X0321593Y0365285D01*
X0322376Y0365886D01*
X0322978Y0366670D01*
X0323213Y0367237D01*
X0323760D01*
X0329810Y0361187D01*
X0329618Y0360725D01*
X0249412D01*
X0243121Y0367016D01*
X0243356Y0367583D01*
X0243485Y0368563D01*
X0243356Y0369543D01*
X0242978Y0370456D01*
X0242376Y0371239D01*
X0241593Y0371841D01*
X0240680Y0372219D01*
X0239700Y0372348D01*
X0238720Y0372219D01*
X0237807Y0371841D01*
X0237023Y0371239D01*
X0236422Y0370456D01*
X0236044Y0369543D01*
X0235915Y0368563D01*
X0236044Y0367583D01*
X0236422Y0366670D01*
X0237023Y0365886D01*
X0237807Y0365285D01*
X0238720Y0364907D01*
X0239700Y0364778D01*
X0240680Y0364907D01*
X0241247Y0365142D01*
X0247926Y0358463D01*
X0248356Y0358175D01*
X0248863Y0358074D01*
X0266314D01*
X0266465Y0357575D01*
X0266142Y0357358D01*
X0266142Y0357358D01*
X0265102Y0356318D01*
X0263187Y0355295D01*
X0260614Y0353575D01*
X0258222Y0351612D01*
X0256623Y0350014D01*
X0251566D01*
X0233431Y0368149D01*
X0233485Y0368563D01*
X0233356Y0369543D01*
X0232978Y0370456D01*
X0232377Y0371239D01*
X0231593Y0371841D01*
X0230680Y0372219D01*
X0229700Y0372348D01*
X0228720Y0372219D01*
X0227807Y0371841D01*
X0227024Y0371239D01*
X0226422Y0370456D01*
X0226044Y0369543D01*
X0225915Y0368563D01*
X0226044Y0367583D01*
X0226422Y0366670D01*
X0227024Y0365886D01*
X0227807Y0365285D01*
X0228720Y0364907D01*
X0229700Y0364778D01*
X0230114Y0364832D01*
X0248936Y0346011D01*
X0249697Y0345502D01*
X0250594Y0345324D01*
X0252399D01*
X0252634Y0344883D01*
X0252351Y0344459D01*
X0250892Y0341729D01*
X0249708Y0338871D01*
X0248810Y0335909D01*
X0248395Y0333823D01*
X0242028D01*
X0241986Y0333886D01*
X0241396Y0334281D01*
X0240700Y0334419D01*
X0240004Y0334281D01*
X0239414Y0333886D01*
X0239019Y0333296D01*
X0238881Y0332600D01*
X0239019Y0331904D01*
X0239414Y0331314D01*
X0240004Y0330919D01*
X0240700Y0330781D01*
X0241396Y0330919D01*
X0241986Y0331314D01*
X0242028Y0331377D01*
X0247686D01*
X0248022Y0331006D01*
X0247902Y0329794D01*
Y0326700D01*
X0248206Y0323620D01*
X0248810Y0320585D01*
X0249708Y0317623D01*
X0250892Y0314764D01*
X0252351Y0312035D01*
X0254070Y0309462D01*
X0256033Y0307070D01*
X0258222Y0304882D01*
X0260614Y0302919D01*
X0263187Y0301199D01*
X0265916Y0299741D01*
X0268775Y0298556D01*
X0271736Y0297658D01*
X0274772Y0297054D01*
X0277851Y0296751D01*
X0280946D01*
X0284026Y0297054D01*
X0287061Y0297658D01*
X0290022Y0298556D01*
X0292881Y0299741D01*
X0295610Y0301199D01*
X0298183Y0302919D01*
X0300575Y0304882D01*
X0302764Y0307070D01*
X0304727Y0309462D01*
X0306446Y0312035D01*
X0307905Y0314764D01*
X0309089Y0317623D01*
X0309988Y0320585D01*
X0310591Y0323620D01*
X0310895Y0326700D01*
Y0329794D01*
X0310591Y0332874D01*
X0309988Y0335909D01*
X0309089Y0338871D01*
X0308761Y0339662D01*
X0309039Y0340078D01*
X0343507D01*
X0346443Y0337142D01*
X0347204Y0336633D01*
X0348102Y0336455D01*
X0481200D01*
X0482097Y0336633D01*
X0482858Y0337142D01*
X0518112Y0372396D01*
X0518720Y0372144D01*
X0519700Y0372015D01*
X0520680Y0372144D01*
X0521593Y0372522D01*
X0522376Y0373124D01*
X0522978Y0373907D01*
X0523356Y0374820D01*
X0523485Y0375800D01*
X0523356Y0376780D01*
X0522978Y0377693D01*
X0522376Y0378477D01*
X0521593Y0379078D01*
X0520680Y0379456D01*
X0519700Y0379585D01*
D02*
G37*
G36*
X0466448Y0376374D02*
X0458748D01*
X0457495Y0376209D01*
X0456327Y0375725D01*
X0455324Y0374956D01*
X0455301Y0374925D01*
X0455282Y0374911D01*
X0454523Y0373921D01*
X0454046Y0372769D01*
X0453883Y0371532D01*
X0454046Y0370296D01*
X0454523Y0369143D01*
X0455282Y0368154D01*
X0455301Y0368140D01*
X0455324Y0368109D01*
X0456327Y0367339D01*
X0457495Y0366856D01*
X0458748Y0366691D01*
X0466448D01*
X0467701Y0366856D01*
X0468868Y0367339D01*
X0469871Y0368109D01*
X0469895Y0368140D01*
X0469913Y0368154D01*
X0470672Y0369143D01*
X0471150Y0370296D01*
X0471313Y0371532D01*
X0471150Y0372769D01*
X0470672Y0373921D01*
X0469913Y0374911D01*
X0469895Y0374925D01*
X0469871Y0374956D01*
X0468868Y0375725D01*
X0467701Y0376209D01*
X0466448Y0376374D01*
D02*
G37*
G36*
X0384755D02*
X0377055D01*
X0375802Y0376209D01*
X0374634Y0375725D01*
X0373631Y0374956D01*
X0373608Y0374925D01*
X0373589Y0374911D01*
X0372830Y0373921D01*
X0372353Y0372769D01*
X0372190Y0371532D01*
X0372353Y0370296D01*
X0372830Y0369143D01*
X0373589Y0368154D01*
X0373608Y0368140D01*
X0373631Y0368109D01*
X0374634Y0367339D01*
X0375802Y0366856D01*
X0377055Y0366691D01*
X0384755D01*
X0386008Y0366856D01*
X0387175Y0367339D01*
X0388178Y0368109D01*
X0388202Y0368140D01*
X0388220Y0368154D01*
X0388980Y0369143D01*
X0389457Y0370296D01*
X0389620Y0371532D01*
X0389457Y0372769D01*
X0388980Y0373921D01*
X0388220Y0374911D01*
X0388202Y0374925D01*
X0388178Y0374956D01*
X0387175Y0375725D01*
X0386008Y0376209D01*
X0384755Y0376374D01*
D02*
G37*
G36*
X0299700Y0372348D02*
X0298720Y0372219D01*
X0297807Y0371841D01*
X0297024Y0371239D01*
X0296422Y0370456D01*
X0296044Y0369543D01*
X0295915Y0368563D01*
X0296044Y0367583D01*
X0296422Y0366670D01*
X0297024Y0365886D01*
X0297807Y0365285D01*
X0298720Y0364907D01*
X0299700Y0364778D01*
X0300680Y0364907D01*
X0301593Y0365285D01*
X0302377Y0365886D01*
X0302978Y0366670D01*
X0303356Y0367583D01*
X0303485Y0368563D01*
X0303356Y0369543D01*
X0302978Y0370456D01*
X0302377Y0371239D01*
X0301593Y0371841D01*
X0300680Y0372219D01*
X0299700Y0372348D01*
D02*
G37*
G36*
X0289700D02*
X0288720Y0372219D01*
X0287807Y0371841D01*
X0287023Y0371239D01*
X0286422Y0370456D01*
X0286044Y0369543D01*
X0285915Y0368563D01*
X0286044Y0367583D01*
X0286422Y0366670D01*
X0287023Y0365886D01*
X0287807Y0365285D01*
X0288720Y0364907D01*
X0289700Y0364778D01*
X0290680Y0364907D01*
X0291593Y0365285D01*
X0292376Y0365886D01*
X0292978Y0366670D01*
X0293356Y0367583D01*
X0293485Y0368563D01*
X0293356Y0369543D01*
X0292978Y0370456D01*
X0292376Y0371239D01*
X0291593Y0371841D01*
X0290680Y0372219D01*
X0289700Y0372348D01*
D02*
G37*
G36*
X0279700D02*
X0278720Y0372219D01*
X0277807Y0371841D01*
X0277024Y0371239D01*
X0276422Y0370456D01*
X0276044Y0369543D01*
X0275915Y0368563D01*
X0276044Y0367583D01*
X0276422Y0366670D01*
X0277024Y0365886D01*
X0277807Y0365285D01*
X0278720Y0364907D01*
X0279700Y0364778D01*
X0280680Y0364907D01*
X0281593Y0365285D01*
X0282377Y0365886D01*
X0282978Y0366670D01*
X0283356Y0367583D01*
X0283485Y0368563D01*
X0283356Y0369543D01*
X0282978Y0370456D01*
X0282377Y0371239D01*
X0281593Y0371841D01*
X0280680Y0372219D01*
X0279700Y0372348D01*
D02*
G37*
G36*
X0269700D02*
X0268720Y0372219D01*
X0267807Y0371841D01*
X0267023Y0371239D01*
X0266422Y0370456D01*
X0266044Y0369543D01*
X0265915Y0368563D01*
X0266044Y0367583D01*
X0266422Y0366670D01*
X0267023Y0365886D01*
X0267807Y0365285D01*
X0268720Y0364907D01*
X0269700Y0364778D01*
X0270680Y0364907D01*
X0271593Y0365285D01*
X0272376Y0365886D01*
X0272978Y0366670D01*
X0273356Y0367583D01*
X0273485Y0368563D01*
X0273356Y0369543D01*
X0272978Y0370456D01*
X0272376Y0371239D01*
X0271593Y0371841D01*
X0270680Y0372219D01*
X0269700Y0372348D01*
D02*
G37*
G36*
X0259700D02*
X0258720Y0372219D01*
X0257807Y0371841D01*
X0257024Y0371239D01*
X0256422Y0370456D01*
X0256044Y0369543D01*
X0255915Y0368563D01*
X0256044Y0367583D01*
X0256422Y0366670D01*
X0257024Y0365886D01*
X0257807Y0365285D01*
X0258720Y0364907D01*
X0259700Y0364778D01*
X0260680Y0364907D01*
X0261593Y0365285D01*
X0262376Y0365886D01*
X0262978Y0366670D01*
X0263356Y0367583D01*
X0263485Y0368563D01*
X0263356Y0369543D01*
X0262978Y0370456D01*
X0262376Y0371239D01*
X0261593Y0371841D01*
X0260680Y0372219D01*
X0259700Y0372348D01*
D02*
G37*
G36*
X0249700D02*
X0248720Y0372219D01*
X0247807Y0371841D01*
X0247024Y0371239D01*
X0246422Y0370456D01*
X0246044Y0369543D01*
X0245915Y0368563D01*
X0246044Y0367583D01*
X0246422Y0366670D01*
X0247024Y0365886D01*
X0247807Y0365285D01*
X0248720Y0364907D01*
X0249700Y0364778D01*
X0250680Y0364907D01*
X0251593Y0365285D01*
X0252377Y0365886D01*
X0252978Y0366670D01*
X0253356Y0367583D01*
X0253485Y0368563D01*
X0253356Y0369543D01*
X0252978Y0370456D01*
X0252377Y0371239D01*
X0251593Y0371841D01*
X0250680Y0372219D01*
X0249700Y0372348D01*
D02*
G37*
G36*
X0219700D02*
X0218720Y0372219D01*
X0217807Y0371841D01*
X0217023Y0371239D01*
X0216422Y0370456D01*
X0216044Y0369543D01*
X0215915Y0368563D01*
X0216044Y0367583D01*
X0216422Y0366670D01*
X0217023Y0365886D01*
X0217807Y0365285D01*
X0218720Y0364907D01*
X0219700Y0364778D01*
X0220680Y0364907D01*
X0221593Y0365285D01*
X0222376Y0365886D01*
X0222978Y0366670D01*
X0223356Y0367583D01*
X0223485Y0368563D01*
X0223356Y0369543D01*
X0222978Y0370456D01*
X0222376Y0371239D01*
X0221593Y0371841D01*
X0220680Y0372219D01*
X0219700Y0372348D01*
D02*
G37*
G36*
X0209700D02*
X0208720Y0372219D01*
X0207807Y0371841D01*
X0207024Y0371239D01*
X0206422Y0370456D01*
X0206044Y0369543D01*
X0205915Y0368563D01*
X0206044Y0367583D01*
X0206422Y0366670D01*
X0207024Y0365886D01*
X0207807Y0365285D01*
X0208720Y0364907D01*
X0209700Y0364778D01*
X0210680Y0364907D01*
X0211593Y0365285D01*
X0212376Y0365886D01*
X0212978Y0366670D01*
X0213356Y0367583D01*
X0213485Y0368563D01*
X0213356Y0369543D01*
X0212978Y0370456D01*
X0212376Y0371239D01*
X0211593Y0371841D01*
X0210680Y0372219D01*
X0209700Y0372348D01*
D02*
G37*
G36*
X0677218Y0352266D02*
X0676161Y0352127D01*
X0675177Y0351719D01*
X0674331Y0351070D01*
X0673682Y0350224D01*
X0673274Y0349239D01*
X0673135Y0348183D01*
X0673274Y0347126D01*
X0673682Y0346141D01*
X0674331Y0345296D01*
X0675177Y0344647D01*
X0676161Y0344239D01*
X0677218Y0344100D01*
X0678275Y0344239D01*
X0679260Y0344647D01*
X0680105Y0345296D01*
X0680754Y0346141D01*
X0681162Y0347126D01*
X0681301Y0348183D01*
X0681162Y0349239D01*
X0680754Y0350224D01*
X0680105Y0351070D01*
X0679260Y0351719D01*
X0678275Y0352127D01*
X0677218Y0352266D01*
D02*
G37*
G36*
Y0312266D02*
X0676161Y0312126D01*
X0675177Y0311719D01*
X0674331Y0311070D01*
X0673682Y0310224D01*
X0673274Y0309239D01*
X0673135Y0308183D01*
X0673274Y0307126D01*
X0673682Y0306141D01*
X0674331Y0305296D01*
X0675177Y0304647D01*
X0676161Y0304239D01*
X0677218Y0304100D01*
X0678275Y0304239D01*
X0679260Y0304647D01*
X0680105Y0305296D01*
X0680754Y0306141D01*
X0681162Y0307126D01*
X0681301Y0308183D01*
X0681162Y0309239D01*
X0680754Y0310224D01*
X0680105Y0311070D01*
X0679260Y0311719D01*
X0678275Y0312126D01*
X0677218Y0312266D01*
D02*
G37*
G36*
X0162173Y0305663D02*
X0152699D01*
Y0301307D01*
Y0296976D01*
X0162173D01*
Y0302460D01*
X0163168D01*
X0163219Y0302204D01*
X0163614Y0301614D01*
X0164204Y0301219D01*
X0164900Y0301081D01*
X0165596Y0301219D01*
X0166186Y0301614D01*
X0166581Y0302204D01*
X0166719Y0302900D01*
X0166581Y0303596D01*
X0166186Y0304186D01*
X0165596Y0304581D01*
X0164969Y0304706D01*
X0164952Y0304722D01*
X0164522Y0305010D01*
X0164015Y0305111D01*
X0162173D01*
Y0305663D01*
D02*
G37*
G36*
X0497553Y0289353D02*
X0490047D01*
Y0281847D01*
X0497553D01*
Y0289353D01*
D02*
G37*
G36*
X0513800Y0289385D02*
X0512820Y0289256D01*
X0511907Y0288878D01*
X0511124Y0288277D01*
X0510522Y0287493D01*
X0510144Y0286580D01*
X0510015Y0285600D01*
X0510144Y0284620D01*
X0510522Y0283707D01*
X0511124Y0282924D01*
X0511907Y0282322D01*
X0512820Y0281944D01*
X0513800Y0281815D01*
X0514780Y0281944D01*
X0515693Y0282322D01*
X0516476Y0282924D01*
X0517078Y0283707D01*
X0517456Y0284620D01*
X0517585Y0285600D01*
X0517456Y0286580D01*
X0517078Y0287493D01*
X0516476Y0288277D01*
X0515693Y0288878D01*
X0514780Y0289256D01*
X0513800Y0289385D01*
D02*
G37*
G36*
X0568000Y0288785D02*
X0567020Y0288656D01*
X0566107Y0288278D01*
X0565323Y0287677D01*
X0564722Y0286893D01*
X0564344Y0285980D01*
X0564215Y0285000D01*
X0564344Y0284020D01*
X0564722Y0283107D01*
X0565323Y0282324D01*
X0566107Y0281722D01*
X0567020Y0281344D01*
X0568000Y0281215D01*
X0568980Y0281344D01*
X0569893Y0281722D01*
X0570677Y0282324D01*
X0571278Y0283107D01*
X0571656Y0284020D01*
X0571785Y0285000D01*
X0571656Y0285980D01*
X0571278Y0286893D01*
X0570677Y0287677D01*
X0569893Y0288278D01*
X0568980Y0288656D01*
X0568000Y0288785D01*
D02*
G37*
G36*
X0612300Y0288685D02*
X0611320Y0288556D01*
X0610407Y0288178D01*
X0609623Y0287577D01*
X0609022Y0286793D01*
X0608644Y0285880D01*
X0608515Y0284900D01*
X0608644Y0283920D01*
X0609022Y0283007D01*
X0609623Y0282224D01*
X0610407Y0281622D01*
X0611320Y0281244D01*
X0612300Y0281115D01*
X0613280Y0281244D01*
X0614193Y0281622D01*
X0614977Y0282224D01*
X0615578Y0283007D01*
X0615956Y0283920D01*
X0616085Y0284900D01*
X0615956Y0285880D01*
X0615578Y0286793D01*
X0614977Y0287577D01*
X0614193Y0288178D01*
X0613280Y0288556D01*
X0612300Y0288685D01*
D02*
G37*
%LPD*%
G36*
X0456542Y0356484D02*
Y0345107D01*
X0456256Y0344725D01*
X0352849D01*
X0348730Y0348844D01*
X0348300Y0349132D01*
X0347793Y0349233D01*
X0343435D01*
X0342903Y0349588D01*
X0342207Y0349726D01*
X0341511Y0349588D01*
X0340921Y0349194D01*
X0340526Y0348603D01*
X0340388Y0347907D01*
X0340484Y0347426D01*
X0340460Y0347375D01*
X0340030Y0347145D01*
X0339312Y0347863D01*
X0339319Y0347900D01*
X0339181Y0348596D01*
X0338786Y0349186D01*
X0338196Y0349581D01*
X0337500Y0349719D01*
X0336804Y0349581D01*
X0336214Y0349186D01*
X0335819Y0348596D01*
X0335681Y0347900D01*
X0335819Y0347204D01*
X0336214Y0346614D01*
X0336804Y0346219D01*
X0337306Y0346119D01*
X0338196Y0345230D01*
X0338004Y0344768D01*
X0308548D01*
X0295958Y0357358D01*
X0295635Y0357575D01*
X0295786Y0358074D01*
X0454951D01*
X0456542Y0356484D01*
D02*
G37*
%LPC*%
G36*
X0466448Y0286610D02*
X0458748D01*
X0457495Y0286445D01*
X0456327Y0285961D01*
X0455324Y0285192D01*
X0455301Y0285161D01*
X0455282Y0285147D01*
X0454523Y0284157D01*
X0454046Y0283005D01*
X0453883Y0281768D01*
X0454046Y0280532D01*
X0454523Y0279380D01*
X0455282Y0278390D01*
X0455301Y0278376D01*
X0455324Y0278345D01*
X0456327Y0277576D01*
X0457495Y0277092D01*
X0458748Y0276927D01*
X0466448D01*
X0467701Y0277092D01*
X0468868Y0277576D01*
X0469871Y0278345D01*
X0469895Y0278376D01*
X0469913Y0278390D01*
X0470672Y0279380D01*
X0471150Y0280532D01*
X0471313Y0281768D01*
X0471150Y0283005D01*
X0470672Y0284157D01*
X0469913Y0285147D01*
X0469895Y0285161D01*
X0469871Y0285192D01*
X0468868Y0285961D01*
X0467701Y0286445D01*
X0466448Y0286610D01*
D02*
G37*
G36*
X0384715D02*
X0377015D01*
X0375762Y0286445D01*
X0374595Y0285961D01*
X0373592Y0285192D01*
X0373568Y0285161D01*
X0373550Y0285147D01*
X0372791Y0284157D01*
X0372313Y0283005D01*
X0372150Y0281768D01*
X0372313Y0280532D01*
X0372791Y0279380D01*
X0373550Y0278390D01*
X0373568Y0278376D01*
X0373592Y0278345D01*
X0374595Y0277576D01*
X0375762Y0277092D01*
X0377015Y0276927D01*
X0384715D01*
X0385968Y0277092D01*
X0387136Y0277576D01*
X0388139Y0278345D01*
X0388162Y0278376D01*
X0388181Y0278390D01*
X0388940Y0279380D01*
X0389417Y0280532D01*
X0389580Y0281768D01*
X0389417Y0283005D01*
X0388940Y0284157D01*
X0388181Y0285147D01*
X0388162Y0285161D01*
X0388139Y0285192D01*
X0387136Y0285961D01*
X0385968Y0286445D01*
X0384715Y0286610D01*
D02*
G37*
%LPD*%
D14*
X0464003Y0352100D02*
X0468216Y0356313D01*
X0462800Y0352100D02*
X0464003D01*
X0455500Y0359400D02*
X0462800Y0352100D01*
X0248863Y0359400D02*
X0455500D01*
X0346700Y0345600D02*
X0350700Y0341600D01*
X0339700Y0345600D02*
X0346700D01*
X0337500Y0347800D02*
X0339700Y0345600D01*
X0350700Y0341600D02*
X0478400D01*
X0352300Y0343400D02*
X0476300D01*
X0347793Y0347907D02*
X0352300Y0343400D01*
X0342207Y0347907D02*
X0347793D01*
X0470400Y0290000D02*
X0481416Y0278984D01*
X0308900Y0274500D02*
X0496800D01*
X0299700Y0283700D02*
X0308900Y0274500D01*
X0299700Y0283700D02*
Y0286437D01*
X0157436Y0312446D02*
X0164654D01*
X0269700Y0285100D02*
Y0286437D01*
X0263100Y0278500D02*
X0269700Y0285100D01*
X0179100Y0278500D02*
X0263100D01*
X0157436Y0303785D02*
X0164015D01*
X0268600Y0280900D02*
X0284163D01*
X0264400Y0276700D02*
X0268600Y0280900D01*
X0165900Y0276700D02*
X0264400D01*
X0157436Y0321108D02*
X0163792D01*
X0268700Y0278100D02*
X0277100D01*
X0265500Y0274900D02*
X0268700Y0278100D01*
X0164300Y0274900D02*
X0265500D01*
X0516800Y0279200D02*
Y0280600D01*
X0521800Y0285600D01*
X0503800D02*
X0504100Y0285300D01*
Y0279300D02*
Y0285300D01*
X0504416Y0278984D02*
X0506900Y0276500D01*
X0481416Y0278984D02*
X0504416D01*
X0365100Y0290000D02*
X0470400D01*
X0351400Y0276300D02*
X0365100Y0290000D01*
X0314846Y0276300D02*
X0351400D01*
X0309700Y0281446D02*
X0314846Y0276300D01*
X0309700Y0281446D02*
Y0286437D01*
X0284163Y0280900D02*
X0289700Y0286437D01*
X0162700Y0279900D02*
X0165900Y0276700D01*
X0421404Y0361400D02*
X0434874Y0374870D01*
X0331472Y0361400D02*
X0421404D01*
X0424835Y0368280D02*
Y0374831D01*
X0419954Y0363400D02*
X0424835Y0368280D01*
X0332300Y0363400D02*
X0419954D01*
X0678800Y0274500D02*
X0687900Y0283600D01*
Y0317501D01*
X0677218Y0328183D02*
X0687900Y0317501D01*
X0239700Y0368563D02*
X0248863Y0359400D01*
X0309700Y0368563D02*
X0314153Y0373016D01*
X0322684D01*
X0319700Y0368563D02*
X0324309D01*
X0519300Y0331500D02*
X0521200Y0329600D01*
X0543500D01*
X0545600Y0331700D01*
X0322684Y0373016D02*
X0332300Y0363400D01*
X0324309Y0368563D02*
X0331472Y0361400D01*
X0337500Y0347800D02*
Y0347900D01*
X0299700Y0286437D02*
X0300950D01*
X0677972Y0276500D02*
X0685900Y0284428D01*
X0677218Y0318183D02*
X0684390D01*
X0685900Y0316672D01*
Y0284428D02*
Y0316672D01*
X0384400Y0331800D02*
Y0333400D01*
X0382600Y0330000D02*
X0384400Y0331800D01*
X0382600Y0326200D02*
Y0330000D01*
X0386100Y0327600D02*
X0519428D01*
X0552529Y0304284D02*
X0553145Y0304900D01*
X0554400D01*
X0519428Y0327600D02*
X0542744Y0304284D01*
X0552529D01*
X0541916Y0302284D02*
X0551016D01*
X0551500Y0301800D01*
X0382600Y0326200D02*
X0383900Y0324900D01*
X0519300D01*
X0541916Y0302284D01*
X0521800Y0285600D02*
X0523800D01*
X0496800Y0274500D02*
Y0276700D01*
Y0274500D02*
X0678800D01*
X0506900Y0276500D02*
X0677972D01*
X0476300Y0343400D02*
X0491800Y0358900D01*
X0494400D01*
X0478400Y0341600D02*
X0492900Y0356100D01*
X0159700Y0279500D02*
Y0285100D01*
Y0279500D02*
X0164300Y0274900D01*
X0171300Y0315500D02*
X0190300Y0296500D01*
X0256600D01*
X0174700Y0282900D02*
X0179100Y0278500D01*
X0174700Y0282900D02*
Y0302400D01*
X0164654Y0312446D02*
X0174700Y0302400D01*
X0162700Y0279900D02*
Y0283800D01*
X0164015Y0303785D02*
X0164900Y0302900D01*
X0163792Y0321108D02*
X0164000Y0320900D01*
X0157475Y0325400D02*
X0168100D01*
X0171300Y0322200D01*
Y0315500D02*
Y0322200D01*
D17*
X0598500Y0358250D02*
D03*
Y0364550D02*
D03*
X0598600Y0372250D02*
D03*
Y0378550D02*
D03*
D32*
X0597100Y0329600D02*
X0624300D01*
X0597000Y0329700D02*
X0597100Y0329600D01*
D33*
X0601500Y0286500D02*
X0608600Y0293600D01*
X0601500Y0285000D02*
Y0286500D01*
X0565500Y0297500D02*
X0578000Y0285000D01*
X0601500D01*
X0652635Y0293600D02*
X0667218Y0308183D01*
X0608600Y0293600D02*
X0613200D01*
X0652635D01*
X0542200Y0287200D02*
Y0297500D01*
Y0287200D02*
X0543800Y0285600D01*
X0526500Y0297500D02*
X0542200D01*
X0565500D01*
X0431400Y0306200D02*
X0442900Y0294700D01*
X0523700D01*
X0526500Y0297500D01*
X0179700Y0289400D02*
X0182800Y0292500D01*
D34*
X0157436Y0316777D02*
X0166023D01*
X0165999Y0316853D02*
X0166023Y0316777D01*
D35*
X0169900Y0339800D02*
X0182400D01*
X0188300Y0333900D01*
X0240700Y0332600D02*
X0265800D01*
D36*
X0229700Y0368563D02*
X0250594Y0347669D01*
X0259769D01*
X0267800Y0355700D01*
X0294300D01*
X0307577Y0342423D01*
X0344479D01*
X0598600Y0364850D02*
X0598800Y0364650D01*
X0588400Y0371000D02*
X0589650Y0372250D01*
X0578300Y0356588D02*
X0589800Y0345088D01*
X0595612Y0350900D01*
X0654501D01*
X0667218Y0338183D01*
X0569850Y0378550D02*
X0598600D01*
X0568300Y0377000D02*
X0569850Y0378550D01*
X0578300Y0356588D02*
Y0372100D01*
X0598600Y0378550D02*
X0609250D01*
X0611663Y0376137D01*
X0613543D01*
X0590796Y0358184D02*
X0613543D01*
X0598600Y0364850D02*
Y0372250D01*
X0590412Y0357800D02*
X0590796Y0358184D01*
X0589650Y0372250D02*
X0598600D01*
X0598500Y0364550D02*
X0636050D01*
X0638700Y0367200D01*
X0638400Y0367500D02*
X0638700Y0367200D01*
X0639200Y0367700D01*
X0563500Y0377000D02*
X0568300D01*
X0518200Y0375800D02*
X0519700D01*
X0344479Y0342423D02*
X0348102Y0338800D01*
X0481200D01*
X0518200Y0375800D01*
X0182800Y0292500D02*
X0343700D01*
X0348300Y0297100D01*
X0207436Y0304666D02*
X0225366D01*
X0226400Y0305700D01*
X0207830Y0335965D02*
X0232665D01*
D37*
X0462598Y0371532D02*
D03*
X0380905D02*
D03*
X0380865Y0281768D02*
D03*
X0462598D02*
D03*
D38*
X0406535Y0374170D02*
D03*
X0319700Y0286437D02*
D03*
X0309700D02*
D03*
X0169700D02*
D03*
X0179700D02*
D03*
X0189700D02*
D03*
X0199700D02*
D03*
X0209700D02*
D03*
X0219700D02*
D03*
X0229700Y0286476D02*
D03*
X0299700Y0286437D02*
D03*
X0289700D02*
D03*
X0279700D02*
D03*
X0269700D02*
D03*
X0239700D02*
D03*
X0249700D02*
D03*
X0259700D02*
D03*
X0209700Y0368563D02*
D03*
X0219700D02*
D03*
X0229700D02*
D03*
X0239700D02*
D03*
X0249700D02*
D03*
X0259700D02*
D03*
X0269700D02*
D03*
X0279700D02*
D03*
X0289700D02*
D03*
X0299700D02*
D03*
X0309700D02*
D03*
X0319700D02*
D03*
D39*
X0416535Y0374131D02*
D03*
X0426535D02*
D03*
X0436574Y0374170D02*
D03*
D40*
X0677218Y0348183D02*
D03*
Y0338183D02*
D03*
Y0328183D02*
D03*
Y0318183D02*
D03*
Y0308183D02*
D03*
X0667218Y0348183D02*
D03*
Y0338183D02*
D03*
Y0328183D02*
D03*
Y0318183D02*
D03*
D41*
Y0308183D02*
D03*
D42*
X0588300Y0372100D02*
D03*
X0578000Y0285000D02*
D03*
X0602300Y0284900D02*
D03*
X0493800Y0285600D02*
D03*
D43*
X0578300Y0372100D02*
D03*
X0568000Y0285000D02*
D03*
X0558000D02*
D03*
X0612300Y0284900D02*
D03*
X0622300D02*
D03*
X0200700Y0327800D02*
D03*
X0559200Y0328200D02*
D03*
X0638300D02*
D03*
X0279510Y0327932D02*
D03*
X0543800Y0285600D02*
D03*
X0533800D02*
D03*
X0523800D02*
D03*
X0513800D02*
D03*
X0503800D02*
D03*
X0431400Y0306200D02*
D03*
X0526500Y0297500D02*
D03*
X0563500Y0377000D02*
D03*
X0519700Y0375800D02*
D03*
D44*
X0690945Y0366142D02*
D03*
X0685039Y0354331D02*
D03*
X0690945Y0342520D02*
D03*
X0685039Y0330709D02*
D03*
X0690945Y0318898D02*
D03*
Y0295275D02*
D03*
X0679134Y0366142D02*
D03*
Y0342520D02*
D03*
X0667323Y0366142D02*
D03*
X0661417Y0354331D02*
D03*
X0649606Y0283465D02*
D03*
X0637795D02*
D03*
X0602362Y0354331D02*
D03*
X0531496D02*
D03*
Y0307086D02*
D03*
X0519685Y0354331D02*
D03*
X0525590Y0342520D02*
D03*
X0519685Y0307086D02*
D03*
X0513779Y0366142D02*
D03*
Y0342520D02*
D03*
X0507874Y0330709D02*
D03*
X0513779Y0318898D02*
D03*
X0507874Y0307086D02*
D03*
X0501968Y0366142D02*
D03*
Y0342520D02*
D03*
X0496063Y0330709D02*
D03*
X0501968Y0318898D02*
D03*
X0490157Y0366142D02*
D03*
Y0342520D02*
D03*
X0484252Y0330709D02*
D03*
X0490157Y0318898D02*
D03*
X0484252Y0307086D02*
D03*
Y0283465D02*
D03*
X0478346Y0366142D02*
D03*
X0472441Y0283465D02*
D03*
X0460630Y0330709D02*
D03*
X0466535Y0318898D02*
D03*
X0448819Y0330709D02*
D03*
X0454724Y0318898D02*
D03*
X0448819Y0307086D02*
D03*
Y0283465D02*
D03*
X0442913Y0366142D02*
D03*
X0437008Y0354331D02*
D03*
Y0330709D02*
D03*
X0442913Y0318898D02*
D03*
X0437008Y0307086D02*
D03*
Y0283465D02*
D03*
X0425197Y0330709D02*
D03*
X0431102Y0318898D02*
D03*
Y0295275D02*
D03*
X0419291Y0366142D02*
D03*
X0413386Y0330709D02*
D03*
X0419291Y0318898D02*
D03*
Y0295275D02*
D03*
X0407480Y0318898D02*
D03*
Y0295275D02*
D03*
X0401575Y0283465D02*
D03*
X0395669Y0366142D02*
D03*
X0389764Y0354331D02*
D03*
Y0330709D02*
D03*
X0395669Y0295275D02*
D03*
X0377953Y0354331D02*
D03*
Y0330709D02*
D03*
X0383858Y0318898D02*
D03*
Y0295275D02*
D03*
X0372047Y0366142D02*
D03*
X0366142Y0354331D02*
D03*
Y0330709D02*
D03*
X0372047Y0318898D02*
D03*
X0366142Y0307086D02*
D03*
Y0283465D02*
D03*
X0360236Y0366142D02*
D03*
X0354331Y0330709D02*
D03*
X0360236Y0318898D02*
D03*
X0354331Y0307086D02*
D03*
Y0283465D02*
D03*
X0348425Y0366142D02*
D03*
X0342520Y0330709D02*
D03*
X0348425Y0318898D02*
D03*
X0342520Y0307086D02*
D03*
Y0283465D02*
D03*
X0336614Y0366142D02*
D03*
X0330709Y0330709D02*
D03*
X0336614Y0318898D02*
D03*
X0330709Y0307086D02*
D03*
Y0283465D02*
D03*
X0324803Y0318898D02*
D03*
X0318898Y0307086D02*
D03*
X0307086Y0354331D02*
D03*
Y0307086D02*
D03*
X0259842Y0354331D02*
D03*
X0236220Y0330709D02*
D03*
X0224409Y0354331D02*
D03*
X0230315Y0342520D02*
D03*
X0224409Y0283465D02*
D03*
X0194882Y0366142D02*
D03*
X0183071D02*
D03*
X0165354Y0354331D02*
D03*
Y0330709D02*
D03*
Y0307086D02*
D03*
X0171260Y0295275D02*
D03*
X0153543Y0354331D02*
D03*
Y0283465D02*
D03*
X0672700Y0295200D02*
D03*
X0673000Y0288700D02*
D03*
X0442600Y0278800D02*
D03*
X0430800Y0278600D02*
D03*
X0418600D02*
D03*
X0407200Y0278700D02*
D03*
X0395400Y0278800D02*
D03*
X0445500Y0284900D02*
D03*
X0434800D02*
D03*
X0423100Y0284300D02*
D03*
X0411300Y0284400D02*
D03*
X0398800Y0284300D02*
D03*
X0236100Y0308400D02*
D03*
X0247400Y0309300D02*
D03*
X0242300Y0311800D02*
D03*
X0248500Y0312800D02*
D03*
X0243200Y0317500D02*
D03*
X0236200Y0313900D02*
D03*
X0516800Y0279200D02*
D03*
X0277100Y0278100D02*
D03*
X0386100Y0327600D02*
D03*
X0554400Y0304900D02*
D03*
X0519300Y0331500D02*
D03*
X0545600Y0331700D02*
D03*
X0597000Y0329700D02*
D03*
X0624300Y0329600D02*
D03*
X0169900Y0339800D02*
D03*
X0188300Y0333900D02*
D03*
X0240700Y0332600D02*
D03*
X0265800D02*
D03*
X0492900Y0356100D02*
D03*
X0337500Y0347900D02*
D03*
X0494400Y0358900D02*
D03*
X0342207Y0347907D02*
D03*
X0384400Y0333400D02*
D03*
X0551500Y0301800D02*
D03*
X0496800Y0276700D02*
D03*
X0375000Y0355800D02*
D03*
X0384500D02*
D03*
X0392900Y0356200D02*
D03*
X0380100Y0351000D02*
D03*
X0389200Y0351100D02*
D03*
X0396900Y0351000D02*
D03*
X0377300Y0346200D02*
D03*
X0386200Y0346300D02*
D03*
X0395100Y0346200D02*
D03*
X0313800Y0350400D02*
D03*
X0323600Y0351100D02*
D03*
X0319500Y0347200D02*
D03*
X0330100Y0347300D02*
D03*
X0353300Y0349700D02*
D03*
X0358400Y0347500D02*
D03*
X0414300Y0354800D02*
D03*
X0424400Y0354900D02*
D03*
X0432200Y0354700D02*
D03*
X0419500Y0349600D02*
D03*
X0429400Y0349800D02*
D03*
X0440000Y0351100D02*
D03*
X0423900Y0346500D02*
D03*
X0438700Y0346400D02*
D03*
X0159700Y0285100D02*
D03*
X0256600Y0296500D02*
D03*
X0162700Y0283800D02*
D03*
X0164900Y0302900D02*
D03*
X0165999Y0316853D02*
D03*
X0164000Y0320900D02*
D03*
D45*
X0348300Y0297100D02*
D03*
X0613200Y0293600D02*
D03*
D46*
X0207436Y0304666D02*
D03*
Y0323957D02*
D03*
D47*
X0207830Y0335965D02*
D03*
D48*
X0159405Y0343446D02*
D03*
D49*
Y0290887D02*
D03*
D50*
X0157436Y0299154D02*
D03*
Y0303485D02*
D03*
Y0307816D02*
D03*
Y0312146D02*
D03*
Y0316477D02*
D03*
Y0320808D02*
D03*
Y0325139D02*
D03*
Y0329469D02*
D03*
D51*
X0613543Y0358184D02*
D03*
Y0376137D02*
D03*
D52*
X0638700Y0367200D02*
D03*
D53*
X0589800Y0345088D02*
D03*
Y0356112D02*
D03*
D54*
X0465216Y0304569D02*
D03*
Y0351813D02*
D03*
M02*
