G04*
G04 #@! TF.GenerationSoftware,Altium Limited,Altium Designer,18.1.9 (240)*
G04*
G04 Layer_Color=16711935*
%FSAX25Y25*%
%MOIN*%
G70*
G01*
G75*
%ADD14C,0.01000*%
%ADD66C,0.00050*%
%ADD67C,0.00600*%
D14*
X0117300Y0383155D02*
X0119300Y0377155D01*
X0115300D02*
X0117300Y0383155D01*
X0115300Y0278525D02*
X0117300Y0272525D01*
X0119300Y0278525D01*
X0117300Y0340836D02*
Y0383155D01*
Y0272525D02*
Y0311644D01*
X0116300Y0383155D02*
X0150874D01*
X0116300Y0272525D02*
X0150874D01*
X0144025Y0406300D02*
X0150025Y0408300D01*
X0144025Y0406300D02*
X0150025Y0404300D01*
X0689206D02*
X0695206Y0406300D01*
X0689206Y0408300D02*
X0695206Y0406300D01*
X0144025D02*
X0400421D01*
X0435610D02*
X0695206D01*
X0144025Y0376306D02*
Y0407300D01*
X0695206Y0376306D02*
Y0407300D01*
D66*
X0695206Y0375281D02*
G03*
X0687332Y0383155I-0007874J0000000D01*
G01*
X0151899D02*
G03*
X0144025Y0375281I0000000J-0007874D01*
G01*
Y0280399D02*
G03*
X0151899Y0272525I0007874J0000000D01*
G01*
X0687332D02*
G03*
X0695206Y0280399I0000000J0007874D01*
G01*
X0695206D02*
Y0375281D01*
X0151899Y0383155D02*
X0687332D01*
X0144025Y0280399D02*
Y0375281D01*
X0151899Y0272525D02*
X0687332D01*
D67*
X0120899Y0317243D02*
Y0313244D01*
X0116900Y0317243D01*
X0115901D01*
X0114901Y0316243D01*
Y0314244D01*
X0115901Y0313244D01*
Y0319242D02*
X0114901Y0320242D01*
Y0322241D01*
X0115901Y0323241D01*
X0116900D01*
X0117900Y0322241D01*
X0118900Y0323241D01*
X0119899D01*
X0120899Y0322241D01*
Y0320242D01*
X0119899Y0319242D01*
X0118900D01*
X0117900Y0320242D01*
X0116900Y0319242D01*
X0115901D01*
X0117900Y0320242D02*
Y0322241D01*
X0120899Y0325240D02*
X0119899D01*
Y0326240D01*
X0120899D01*
Y0325240D01*
Y0330239D02*
Y0332238D01*
Y0331238D01*
X0114901D01*
X0115901Y0330239D01*
Y0335237D02*
X0114901Y0336237D01*
Y0338236D01*
X0115901Y0339236D01*
X0119899D01*
X0120899Y0338236D01*
Y0336237D01*
X0119899Y0335237D01*
X0115901D01*
X0402021Y0402701D02*
X0404020D01*
X0403020D01*
Y0408699D01*
X0402021Y0407699D01*
X0410018Y0402701D02*
Y0408699D01*
X0407019Y0405700D01*
X0411018D01*
X0413017Y0407699D02*
X0414017Y0408699D01*
X0416016D01*
X0417016Y0407699D01*
Y0403701D01*
X0416016Y0402701D01*
X0414017D01*
X0413017Y0403701D01*
Y0407699D01*
X0419015Y0402701D02*
Y0403701D01*
X0420015D01*
Y0402701D01*
X0419015D01*
X0424014Y0407699D02*
X0425013Y0408699D01*
X0427013D01*
X0428012Y0407699D01*
Y0403701D01*
X0427013Y0402701D01*
X0425013D01*
X0424014Y0403701D01*
Y0407699D01*
X0430012D02*
X0431011Y0408699D01*
X0433011D01*
X0434010Y0407699D01*
Y0403701D01*
X0433011Y0402701D01*
X0431011D01*
X0430012Y0403701D01*
Y0407699D01*
M02*
