G04 Layer_Color=16711935*
%FSAX25Y25*%
%MOIN*%
G70*
G01*
G75*
%ADD41R,0.03556X0.04147*%
%ADD43R,0.07296X0.07296*%
%ADD44C,0.07296*%
%ADD45C,0.06706*%
%ADD46C,0.04737*%
%ADD47R,0.06706X0.06706*%
%ADD48C,0.06706*%
%ADD49C,0.06710*%
%ADD50O,0.16548X0.08674*%
%ADD51C,0.02768*%
%ADD52R,0.12020X0.05721*%
%ADD53R,0.26391X0.22650*%
%ADD54R,0.04540X0.04147*%
%ADD55R,0.05524X0.05524*%
%ADD56R,0.06706X0.05367*%
%ADD57R,0.05328X0.03162*%
%ADD58R,0.05918X0.03359*%
%ADD59R,0.02572X0.05328*%
%ADD60R,0.02572X0.05131*%
%ADD61R,0.07099X0.03359*%
%ADD62R,0.09225X0.03359*%
%ADD63R,0.07887X0.06115*%
%ADD64R,0.06312X0.03950*%
%ADD65R,0.16548X0.12611*%
D41*
X0272043Y0377857D02*
D03*
X0278539D02*
D03*
X0238661Y0377642D02*
D03*
X0245157D02*
D03*
X0224157D02*
D03*
X0217661D02*
D03*
X0265239Y0377958D02*
D03*
X0258743D02*
D03*
D43*
X0667218Y0308183D02*
D03*
D44*
Y0318183D02*
D03*
Y0328183D02*
D03*
Y0338183D02*
D03*
Y0348183D02*
D03*
X0677218Y0308183D02*
D03*
Y0318183D02*
D03*
Y0328183D02*
D03*
Y0338183D02*
D03*
Y0348183D02*
D03*
D45*
X0198000Y0369163D02*
D03*
X0208000D02*
D03*
X0218000D02*
D03*
X0228000D02*
D03*
X0238000D02*
D03*
X0248000D02*
D03*
X0258000D02*
D03*
X0268000D02*
D03*
X0278000D02*
D03*
X0288000D02*
D03*
X0298000D02*
D03*
X0308000D02*
D03*
X0258000Y0287037D02*
D03*
X0268000D02*
D03*
X0278000D02*
D03*
X0248000D02*
D03*
X0238000D02*
D03*
X0228000D02*
D03*
X0218000D02*
D03*
X0288000Y0287076D02*
D03*
X0298000Y0287037D02*
D03*
X0308000D02*
D03*
X0318000D02*
D03*
X0328000D02*
D03*
X0338000D02*
D03*
X0348000D02*
D03*
X0208000D02*
D03*
X0198000D02*
D03*
X0404835Y0374870D02*
D03*
D46*
X0557400Y0327700D02*
D03*
X0203100D02*
D03*
X0281700Y0328000D02*
D03*
X0635900Y0327700D02*
D03*
D47*
X0588400Y0371600D02*
D03*
X0534500Y0285000D02*
D03*
X0578000D02*
D03*
X0602300Y0284900D02*
D03*
D48*
X0578400Y0371600D02*
D03*
X0504500Y0285000D02*
D03*
X0514500D02*
D03*
X0524500D02*
D03*
X0568000D02*
D03*
X0558000D02*
D03*
X0612300Y0284900D02*
D03*
X0622300D02*
D03*
X0431400Y0306200D02*
D03*
X0526500Y0297500D02*
D03*
X0513100Y0370700D02*
D03*
X0359800Y0342500D02*
D03*
X0565100Y0373800D02*
D03*
D49*
X0434874Y0374870D02*
D03*
X0424835Y0374831D02*
D03*
X0414835D02*
D03*
D50*
X0460898Y0282469D02*
D03*
X0379165D02*
D03*
X0379205Y0372232D02*
D03*
X0460898D02*
D03*
D51*
X0496063Y0307086D02*
D03*
Y0283465D02*
D03*
X0490157Y0318898D02*
D03*
X0472441Y0283465D02*
D03*
X0460630Y0330709D02*
D03*
X0448819D02*
D03*
Y0307086D02*
D03*
Y0283465D02*
D03*
X0437008Y0330709D02*
D03*
Y0283465D02*
D03*
X0425197Y0330709D02*
D03*
Y0283465D02*
D03*
X0413386Y0330709D02*
D03*
Y0283465D02*
D03*
X0401575D02*
D03*
X0389764Y0330709D02*
D03*
X0377953D02*
D03*
X0366142Y0283465D02*
D03*
X0354331Y0330709D02*
D03*
Y0307086D02*
D03*
Y0283465D02*
D03*
X0342520Y0330709D02*
D03*
Y0307086D02*
D03*
X0336614Y0295275D02*
D03*
X0182100Y0286600D02*
D03*
X0338900Y0317500D02*
D03*
X0249600Y0299500D02*
D03*
X0489500Y0279000D02*
D03*
X0356000Y0364000D02*
D03*
X0400500Y0362500D02*
D03*
X0427000Y0365000D02*
D03*
X0436000Y0360000D02*
D03*
X0368800Y0309600D02*
D03*
X0273100Y0338900D02*
D03*
X0200400Y0341000D02*
D03*
X0338500Y0322000D02*
D03*
X0523100Y0360500D02*
D03*
X0522800Y0356800D02*
D03*
X0551400Y0339700D02*
D03*
X0625300Y0336600D02*
D03*
D52*
X0613543Y0358184D02*
D03*
Y0376137D02*
D03*
D53*
X0638700Y0367200D02*
D03*
D54*
X0598500Y0358250D02*
D03*
Y0364550D02*
D03*
X0598600Y0372250D02*
D03*
Y0378550D02*
D03*
D55*
X0579488Y0358200D02*
D03*
X0590512D02*
D03*
D56*
X0160944Y0351858D02*
D03*
D57*
X0192342Y0352961D02*
D03*
D58*
X0215669Y0352862D02*
D03*
D59*
X0216554Y0299122D02*
D03*
D60*
X0213956Y0299024D02*
D03*
D61*
X0208031Y0298138D02*
D03*
D62*
X0188031D02*
D03*
D63*
X0161928Y0299417D02*
D03*
D64*
X0169999Y0302921D02*
D03*
Y0307252D02*
D03*
Y0311583D02*
D03*
Y0315913D02*
D03*
Y0320244D02*
D03*
Y0324575D02*
D03*
Y0328906D02*
D03*
Y0333236D02*
D03*
D65*
X0471916Y0308068D02*
D03*
Y0355313D02*
D03*
M02*
