M48
;Layer_Color=9474304
;FILE_FORMAT=2:5
INCH
;TYPE=PLATED
T1F00S00C0.01181
T2F00S00C0.02756
T3F00S00C0.02800
T4F00S00C0.03543
T5F00S00C0.04331
T6F00S00C0.05118
;TYPE=NON_PLATED
%
T01
X0637795Y0283465
X0649606
X0673000Y0288700
X0672700Y0295200
X0690945Y0295275
X0551500Y0301800
X0554400Y0304900
X0531496Y0307086
X0519685
X0507874
X0484252
Y0283465
X0472441
X0496800Y0276700
X0516800Y0279200
X0448819Y0283465
X0445500Y0284900
X0442600Y0278800
X0437008Y0283465
X0434800Y0284900
X0430800Y0278600
X0418600
X0423100Y0284300
X0411300Y0284400
X0407200Y0278700
X0401575Y0283465
X0398800Y0284300
X0395400Y0278800
X0395669Y0295275
X0407480
X0419291
X0431102
X0437008Y0307086
X0448819
X0383858Y0295275
X0366142Y0307086
X0354331
X0342520
X0330709
X0318898
X0330709Y0283465
X0342520
X0354331
X0366142
X0307086Y0307086
X0277100Y0278100
X0256600Y0296500
X0247400Y0309300
X0242300Y0311800
X0236100Y0308400
X0224409Y0283465
X0162700Y0283800
X0159700Y0285100
X0171260Y0295275
X0164900Y0302900
X0165354Y0307086
X0153543Y0283465
Y0354331
X0165354
X0169900Y0339800
X0165354Y0330709
X0164000Y0320900
X0165999Y0316853
X0188300Y0333900
X0183071Y0366142
X0194882
X0224409Y0354331
X0230315Y0342520
X0236220Y0330709
X0240700Y0332600
X0243200Y0317500
X0248500Y0312800
X0236200Y0313900
X0265800Y0332600
X0259842Y0354331
X0307086
X0313800Y0350400
X0319500Y0347200
X0323600Y0351100
X0330100Y0347300
X0337500Y0347900
X0342207Y0347907
X0353300Y0349700
X0358400Y0347500
X0366142Y0354331
X0375000Y0355800
X0377953Y0354331
X0380100Y0351000
X0377300Y0346200
X0386200Y0346300
X0389200Y0351100
X0389764Y0354331
X0392900Y0356200
X0384500Y0355800
X0396900Y0351000
X0395100Y0346200
X0395669Y0366142
X0419291
X0414300Y0354800
X0424400Y0354900
X0432200Y0354700
X0437008Y0354331
X0440000Y0351100
X0438700Y0346400
X0429400Y0349800
X0423900Y0346500
X0419500Y0349600
X0425197Y0330709
X0437008
X0448819
X0460630
X0466535Y0318898
X0454724
X0442913
X0431102
X0419291
X0407480
X0413386Y0330709
X0389764
X0386100Y0327600
X0384400Y0333400
X0377953Y0330709
X0366142
X0354331
X0342520
X0330709
X0336614Y0318898
X0348425
X0360236
X0372047
X0383858
X0372047Y0366142
X0360236
X0348425
X0336614
X0324803Y0318898
X0442913Y0366142
X0478346
X0490157
X0494400Y0358900
X0492900Y0356100
X0490157Y0342520
X0501968
X0513779
X0525590
X0519300Y0331500
X0507874Y0330709
X0496063
X0484252
X0490157Y0318898
X0501968
X0513779
X0519685Y0354331
X0531496
X0513779Y0366142
X0501968
X0545600Y0331700
X0597000Y0329700
X0624300Y0329600
X0602362Y0354331
X0661417
X0667323Y0366142
X0679134
X0690945
X0685039Y0354331
X0690945Y0342520
X0679134
X0685039Y0330709
X0690945Y0318898
T02
X0526500Y0297500
X0431400Y0306200
X0519700Y0375800
X0563500Y0377000
T03
X0613200Y0293600
X0348300Y0297100
T04
X0493800Y0285600
X0503800
X0513800
X0523800
X0533800
X0543800
X0558000Y0285000
X0568000
X0578000
X0602300Y0284900
X0612300
X0622300
X0319700Y0286437
X0309700
X0299700
X0289700
X0279700
X0269700
X0259700
X0249700
X0239700
X0229700Y0286476
X0219700Y0286437
X0209700
X0199700
X0189700
X0179700
X0169700
X0209700Y0368563
X0219700
X0229700
X0239700
X0249700
X0259700
X0269700
X0279700
X0289700
X0299700
X0309700
X0319700
X0406535Y0374170
X0416535Y0374131
X0426535
X0436574Y0374170
X0578300Y0372100
X0588300
T05
X0667218Y0308183
X0677218
Y0318183
Y0328183
Y0338183
Y0348183
X0667218
Y0338183
Y0328183
Y0318183
T06
X0200700Y0327800
X0279510Y0327932
X0559200Y0328200
X0638300
M30
