G04 Layer_Physical_Order=1*
G04 Layer_Color=255*
%FSAX25Y25*%
%MOIN*%
G70*
G01*
G75*
%ADD10R,0.02756X0.03347*%
%ADD11C,0.31496*%
%ADD12C,0.02953*%
%ADD13C,0.01000*%
%ADD14C,0.03000*%
%ADD15R,0.06496X0.06496*%
%ADD16C,0.06496*%
%ADD17C,0.03937*%
%ADD18C,0.05905*%
%ADD19C,0.05910*%
%ADD20O,0.15748X0.07874*%
%ADD21R,0.05905X0.05905*%
%ADD22C,0.05905*%
%ADD23C,0.01968*%
G36*
X0432418Y0377971D02*
X0432054Y0377691D01*
X0431420Y0376865D01*
X0431021Y0375903D01*
X0430885Y0374870D01*
X0431021Y0373838D01*
X0431420Y0372876D01*
X0432054Y0372049D01*
X0432880Y0371416D01*
X0433842Y0371017D01*
X0434874Y0370881D01*
X0435906Y0371017D01*
X0436868Y0371416D01*
X0437695Y0372049D01*
X0438329Y0372876D01*
X0438521Y0373341D01*
X0445496D01*
X0503701Y0315136D01*
X0503763Y0314823D01*
X0504939Y0310654D01*
X0506438Y0306591D01*
X0508251Y0302658D01*
X0510368Y0298879D01*
X0512774Y0295277D01*
X0512971Y0295028D01*
Y0288645D01*
X0512507Y0288453D01*
X0511681Y0287819D01*
X0511047Y0286993D01*
X0510649Y0286032D01*
X0510513Y0285000D01*
X0510649Y0283968D01*
X0511047Y0283007D01*
X0511681Y0282181D01*
X0512507Y0281547D01*
X0513468Y0281149D01*
X0514500Y0281013D01*
X0515228Y0281109D01*
X0521929Y0274408D01*
X0521738Y0273946D01*
X0294939D01*
X0294870Y0274446D01*
X0298746Y0275539D01*
X0302809Y0277038D01*
X0306742Y0278852D01*
X0310521Y0280968D01*
X0314123Y0283374D01*
X0315187Y0284213D01*
X0316007Y0283584D01*
X0316968Y0283186D01*
X0318000Y0283050D01*
X0319032Y0283186D01*
X0319993Y0283584D01*
X0320819Y0284218D01*
X0321453Y0285044D01*
X0321851Y0286005D01*
X0321987Y0287037D01*
X0321851Y0288069D01*
X0321453Y0289030D01*
X0321128Y0289454D01*
X0323644Y0292176D01*
X0326326Y0295577D01*
X0328732Y0299179D01*
X0330849Y0302958D01*
X0332662Y0306891D01*
X0333952Y0310390D01*
X0339074Y0315512D01*
X0339674Y0315631D01*
X0340331Y0316069D01*
X0340769Y0316726D01*
X0340923Y0317500D01*
X0340769Y0318274D01*
X0340331Y0318931D01*
X0339674Y0319369D01*
X0338900Y0319523D01*
X0338126Y0319369D01*
X0337469Y0318931D01*
X0337031Y0318274D01*
X0336912Y0317674D01*
X0336188Y0316951D01*
X0335747Y0317187D01*
X0336181Y0319371D01*
X0336312Y0320471D01*
X0337217D01*
X0337726Y0320131D01*
X0338500Y0319977D01*
X0339274Y0320131D01*
X0339931Y0320569D01*
X0340369Y0321226D01*
X0340523Y0322000D01*
X0340369Y0322774D01*
X0339931Y0323431D01*
X0339274Y0323869D01*
X0338500Y0324023D01*
X0337726Y0323869D01*
X0337217Y0323529D01*
X0337134D01*
X0336705Y0324029D01*
X0336861Y0328000D01*
X0336691Y0332328D01*
X0336181Y0336629D01*
X0335598Y0339564D01*
X0335915Y0339951D01*
X0356774D01*
X0356981Y0339681D01*
X0357807Y0339047D01*
X0358768Y0338649D01*
X0359800Y0338513D01*
X0360832Y0338649D01*
X0361793Y0339047D01*
X0362619Y0339681D01*
X0363253Y0340507D01*
X0363651Y0341468D01*
X0363787Y0342500D01*
X0363651Y0343532D01*
X0363253Y0344493D01*
X0362619Y0345319D01*
X0361793Y0345953D01*
X0360832Y0346351D01*
X0359800Y0346487D01*
X0358768Y0346351D01*
X0357807Y0345953D01*
X0356981Y0345319D01*
X0356774Y0345049D01*
X0334160D01*
X0332662Y0349109D01*
X0330849Y0353042D01*
X0328732Y0356821D01*
X0326326Y0360423D01*
X0323644Y0363824D01*
X0320705Y0367004D01*
X0317524Y0369945D01*
X0314123Y0372626D01*
X0312078Y0373992D01*
X0312223Y0374471D01*
X0353366D01*
X0373419Y0354419D01*
X0373915Y0354087D01*
X0374500Y0353971D01*
X0389000D01*
X0389585Y0354087D01*
X0390081Y0354419D01*
X0396634Y0360971D01*
X0399217D01*
X0399726Y0360631D01*
X0400500Y0360477D01*
X0401274Y0360631D01*
X0401786Y0360973D01*
X0402286Y0360769D01*
Y0332827D01*
X0369507Y0300049D01*
X0347963D01*
X0346988Y0299855D01*
X0346161Y0299302D01*
X0337864Y0291006D01*
X0336968Y0290888D01*
X0336007Y0290490D01*
X0335181Y0289856D01*
X0334547Y0289030D01*
X0334149Y0288069D01*
X0334013Y0287037D01*
X0334149Y0286005D01*
X0334547Y0285044D01*
X0335181Y0284218D01*
X0336007Y0283584D01*
X0336968Y0283186D01*
X0338000Y0283050D01*
X0339032Y0283186D01*
X0339993Y0283584D01*
X0340819Y0284218D01*
X0341453Y0285044D01*
X0341851Y0286005D01*
X0341987Y0287037D01*
X0341884Y0287816D01*
X0349019Y0294951D01*
X0370563D01*
X0371538Y0295145D01*
X0372365Y0295698D01*
X0380319Y0303651D01*
X0428374D01*
X0428581Y0303381D01*
X0429407Y0302747D01*
X0430368Y0302349D01*
X0431400Y0302213D01*
X0432432Y0302349D01*
X0433393Y0302747D01*
X0434219Y0303381D01*
X0434853Y0304207D01*
X0435251Y0305168D01*
X0435387Y0306200D01*
X0435251Y0307232D01*
X0434853Y0308193D01*
X0434219Y0309019D01*
X0433393Y0309653D01*
X0432432Y0310051D01*
X0431400Y0310187D01*
X0430368Y0310051D01*
X0429407Y0309653D01*
X0428581Y0309019D01*
X0428374Y0308749D01*
X0386070D01*
X0385879Y0309211D01*
X0406637Y0329969D01*
X0407190Y0330796D01*
X0407384Y0331772D01*
Y0371844D01*
X0407654Y0372051D01*
X0408287Y0372877D01*
X0408686Y0373838D01*
X0408821Y0374870D01*
X0408686Y0375902D01*
X0408287Y0376864D01*
X0407654Y0377689D01*
X0407287Y0377971D01*
X0407457Y0378471D01*
X0412260D01*
X0412430Y0377971D01*
X0412014Y0377651D01*
X0411380Y0376825D01*
X0410982Y0375863D01*
X0410912Y0375331D01*
X0418758D01*
X0418688Y0375863D01*
X0418289Y0376825D01*
X0417655Y0377651D01*
X0417239Y0377971D01*
X0417409Y0378471D01*
X0422261D01*
X0422430Y0377971D01*
X0422014Y0377651D01*
X0421380Y0376825D01*
X0420982Y0375863D01*
X0420846Y0374831D01*
X0420982Y0373798D01*
X0421380Y0372836D01*
X0422014Y0372010D01*
X0422840Y0371376D01*
X0423802Y0370978D01*
X0424835Y0370842D01*
X0425867Y0370978D01*
X0426332Y0371170D01*
X0430511Y0366991D01*
X0430320Y0366529D01*
X0428283D01*
X0427774Y0366869D01*
X0427000Y0367023D01*
X0426226Y0366869D01*
X0425569Y0366431D01*
X0425131Y0365774D01*
X0424977Y0365000D01*
X0425131Y0364226D01*
X0425569Y0363569D01*
X0426226Y0363131D01*
X0427000Y0362977D01*
X0427774Y0363131D01*
X0428283Y0363471D01*
X0430367D01*
X0434012Y0359825D01*
X0434131Y0359226D01*
X0434569Y0358569D01*
X0435226Y0358131D01*
X0436000Y0357977D01*
X0436774Y0358131D01*
X0437431Y0358569D01*
X0437749Y0359046D01*
X0438330Y0359173D01*
X0478971Y0318532D01*
Y0287500D01*
X0479087Y0286915D01*
X0479419Y0286419D01*
X0487670Y0278167D01*
X0488069Y0277569D01*
X0488726Y0277131D01*
X0489500Y0276977D01*
X0490274Y0277131D01*
X0490931Y0277569D01*
X0491369Y0278226D01*
X0491523Y0279000D01*
X0491369Y0279774D01*
X0490931Y0280431D01*
X0490274Y0280869D01*
X0489500Y0281023D01*
X0489199Y0280963D01*
X0482029Y0288134D01*
Y0319165D01*
X0481913Y0319751D01*
X0481581Y0320247D01*
X0428495Y0373333D01*
X0428688Y0373798D01*
X0428824Y0374831D01*
X0428688Y0375863D01*
X0428289Y0376825D01*
X0427655Y0377651D01*
X0427239Y0377971D01*
X0427409Y0378471D01*
X0432249D01*
X0432418Y0377971D01*
D02*
G37*
G36*
X0598328Y0285916D02*
Y0281947D01*
X0598405Y0281557D01*
X0598626Y0281226D01*
X0598957Y0281005D01*
X0599347Y0280928D01*
X0605253D01*
X0605643Y0281005D01*
X0605974Y0281226D01*
X0606057Y0281351D01*
X0607079Y0280668D01*
X0610858Y0278552D01*
X0611107Y0278436D01*
X0611000Y0277948D01*
X0582300D01*
X0582193Y0278436D01*
X0582442Y0278552D01*
X0586221Y0280668D01*
X0589823Y0283074D01*
X0593224Y0285755D01*
X0595959Y0288284D01*
X0598328Y0285916D01*
D02*
G37*
%LPC*%
G36*
X0471941Y0285388D02*
X0471667Y0285334D01*
X0471010Y0284895D01*
X0470572Y0284239D01*
X0470517Y0283964D01*
X0471941D01*
Y0285388D01*
D02*
G37*
G36*
X0449319D02*
Y0283964D01*
X0450742D01*
X0450688Y0284239D01*
X0450249Y0284895D01*
X0449593Y0285334D01*
X0449319Y0285388D01*
D02*
G37*
G36*
X0448319D02*
X0448044Y0285334D01*
X0447388Y0284895D01*
X0446950Y0284239D01*
X0446895Y0283964D01*
X0448319D01*
Y0285388D01*
D02*
G37*
G36*
X0496563D02*
Y0283964D01*
X0497987D01*
X0497932Y0284239D01*
X0497493Y0284895D01*
X0496837Y0285334D01*
X0496563Y0285388D01*
D02*
G37*
G36*
X0495563D02*
X0495289Y0285334D01*
X0494632Y0284895D01*
X0494194Y0284239D01*
X0494139Y0283964D01*
X0495563D01*
Y0285388D01*
D02*
G37*
G36*
X0472941D02*
Y0283964D01*
X0474365D01*
X0474310Y0284239D01*
X0473871Y0284895D01*
X0473215Y0285334D01*
X0472941Y0285388D01*
D02*
G37*
G36*
X0437508D02*
Y0283964D01*
X0438931D01*
X0438877Y0284239D01*
X0438438Y0284895D01*
X0437782Y0285334D01*
X0437508Y0285388D01*
D02*
G37*
G36*
X0413886D02*
Y0283964D01*
X0415309D01*
X0415255Y0284239D01*
X0414816Y0284895D01*
X0414160Y0285334D01*
X0413886Y0285388D01*
D02*
G37*
G36*
X0412886D02*
X0412611Y0285334D01*
X0411955Y0284895D01*
X0411517Y0284239D01*
X0411462Y0283964D01*
X0412886D01*
Y0285388D01*
D02*
G37*
G36*
X0402075D02*
Y0283964D01*
X0403498D01*
X0403444Y0284239D01*
X0403005Y0284895D01*
X0402349Y0285334D01*
X0402075Y0285388D01*
D02*
G37*
G36*
X0436508D02*
X0436234Y0285334D01*
X0435577Y0284895D01*
X0435139Y0284239D01*
X0435084Y0283964D01*
X0436508D01*
Y0285388D01*
D02*
G37*
G36*
X0425697D02*
Y0283964D01*
X0427120D01*
X0427066Y0284239D01*
X0426627Y0284895D01*
X0425971Y0285334D01*
X0425697Y0285388D01*
D02*
G37*
G36*
X0424697D02*
X0424423Y0285334D01*
X0423766Y0284895D01*
X0423328Y0284239D01*
X0423273Y0283964D01*
X0424697D01*
Y0285388D01*
D02*
G37*
G36*
X0344443Y0306587D02*
X0343020D01*
Y0305163D01*
X0343294Y0305217D01*
X0343950Y0305656D01*
X0344389Y0306312D01*
X0344443Y0306587D01*
D02*
G37*
G36*
X0342020D02*
X0340596D01*
X0340651Y0306312D01*
X0341089Y0305656D01*
X0341745Y0305217D01*
X0342020Y0305163D01*
Y0306587D01*
D02*
G37*
G36*
X0337114Y0297199D02*
Y0295776D01*
X0338538D01*
X0338483Y0296050D01*
X0338045Y0296706D01*
X0337388Y0297145D01*
X0337114Y0297199D01*
D02*
G37*
G36*
X0448319Y0306587D02*
X0446895D01*
X0446950Y0306312D01*
X0447388Y0305656D01*
X0448044Y0305217D01*
X0448319Y0305163D01*
Y0306587D01*
D02*
G37*
G36*
X0356254D02*
X0354831D01*
Y0305163D01*
X0355105Y0305217D01*
X0355761Y0305656D01*
X0356200Y0306312D01*
X0356254Y0306587D01*
D02*
G37*
G36*
X0353831D02*
X0352407D01*
X0352462Y0306312D01*
X0352900Y0305656D01*
X0353556Y0305217D01*
X0353831Y0305163D01*
Y0306587D01*
D02*
G37*
G36*
X0336114Y0297199D02*
X0335840Y0297145D01*
X0335184Y0296706D01*
X0334745Y0296050D01*
X0334690Y0295776D01*
X0336114D01*
Y0297199D01*
D02*
G37*
G36*
X0464811Y0287459D02*
X0456985D01*
X0456919Y0287446D01*
X0456852Y0287450D01*
X0455824Y0287315D01*
X0455744Y0287288D01*
X0455672Y0287278D01*
X0455619Y0287257D01*
X0455567Y0287246D01*
X0454609Y0286849D01*
X0454565Y0286820D01*
X0454471Y0286781D01*
X0454401Y0286728D01*
X0454379Y0286716D01*
X0453556Y0286085D01*
X0453539Y0286066D01*
X0453440Y0285990D01*
X0453370Y0285899D01*
X0453368Y0285897D01*
X0452737Y0285075D01*
X0452736Y0285072D01*
X0452648Y0284958D01*
X0452151Y0283757D01*
X0451981Y0282469D01*
X0452151Y0281180D01*
X0452648Y0279979D01*
X0452736Y0279865D01*
X0452737Y0279862D01*
X0453368Y0279040D01*
X0453370Y0279038D01*
X0453440Y0278947D01*
X0453539Y0278871D01*
X0453556Y0278852D01*
X0454379Y0278221D01*
X0454401Y0278209D01*
X0454471Y0278156D01*
X0454565Y0278117D01*
X0454609Y0278088D01*
X0455567Y0277691D01*
X0455619Y0277680D01*
X0455672Y0277659D01*
X0455744Y0277649D01*
X0455824Y0277622D01*
X0456852Y0277487D01*
X0456919Y0277491D01*
X0456985Y0277478D01*
X0464811D01*
X0464877Y0277491D01*
X0464944Y0277487D01*
X0465972Y0277622D01*
X0466051Y0277649D01*
X0466123Y0277659D01*
X0466176Y0277680D01*
X0466229Y0277691D01*
X0467186Y0278088D01*
X0467231Y0278117D01*
X0467324Y0278156D01*
X0467394Y0278209D01*
X0467417Y0278221D01*
X0468239Y0278852D01*
X0468256Y0278871D01*
X0468356Y0278947D01*
X0468425Y0279038D01*
X0468427Y0279040D01*
X0469059Y0279862D01*
X0469060Y0279865D01*
X0469147Y0279979D01*
X0469645Y0281180D01*
X0469814Y0282469D01*
X0469645Y0283757D01*
X0469147Y0284958D01*
X0469060Y0285072D01*
X0469059Y0285075D01*
X0468427Y0285897D01*
X0468425Y0285899D01*
X0468356Y0285990D01*
X0468256Y0286066D01*
X0468239Y0286085D01*
X0467417Y0286716D01*
X0467394Y0286728D01*
X0467324Y0286781D01*
X0467231Y0286820D01*
X0467186Y0286849D01*
X0466229Y0287246D01*
X0466176Y0287257D01*
X0466123Y0287278D01*
X0466051Y0287288D01*
X0465972Y0287315D01*
X0464944Y0287450D01*
X0464877Y0287446D01*
X0464811Y0287459D01*
D02*
G37*
G36*
X0505000Y0288921D02*
Y0285500D01*
X0508421D01*
X0508351Y0286032D01*
X0507953Y0286993D01*
X0507319Y0287819D01*
X0506493Y0288453D01*
X0505532Y0288851D01*
X0505000Y0288921D01*
D02*
G37*
G36*
X0504000D02*
X0503468Y0288851D01*
X0502507Y0288453D01*
X0501681Y0287819D01*
X0501047Y0286993D01*
X0500649Y0286032D01*
X0500579Y0285500D01*
X0504000D01*
Y0288921D01*
D02*
G37*
G36*
X0338538Y0294776D02*
X0337114D01*
Y0293352D01*
X0337388Y0293406D01*
X0338045Y0293845D01*
X0338483Y0294501D01*
X0338538Y0294776D01*
D02*
G37*
G36*
X0336114D02*
X0334690D01*
X0334745Y0294501D01*
X0335184Y0293845D01*
X0335840Y0293406D01*
X0336114Y0293352D01*
Y0294776D01*
D02*
G37*
G36*
X0383015Y0287523D02*
X0375315D01*
X0375249Y0287509D01*
X0375182Y0287514D01*
X0374138Y0287376D01*
X0374043Y0287344D01*
X0374010Y0287340D01*
X0373979Y0287327D01*
X0373881Y0287308D01*
X0372908Y0286905D01*
X0372824Y0286849D01*
X0372794Y0286836D01*
X0372767Y0286816D01*
X0372677Y0286771D01*
X0371842Y0286130D01*
X0371776Y0286055D01*
X0371749Y0286034D01*
X0371729Y0286008D01*
X0371712Y0285994D01*
X0371707Y0285990D01*
X0371706Y0285988D01*
X0371654Y0285942D01*
X0371012Y0285106D01*
X0370982Y0285044D01*
X0370916Y0284958D01*
X0370886Y0284885D01*
X0370879Y0284876D01*
X0370476Y0283903D01*
X0370474Y0283892D01*
X0370418Y0283757D01*
X0370249Y0282469D01*
X0370418Y0281180D01*
X0370474Y0281045D01*
X0370476Y0281034D01*
X0370879Y0280061D01*
X0370886Y0280052D01*
X0370916Y0279979D01*
X0370982Y0279893D01*
X0371012Y0279831D01*
X0371654Y0278995D01*
X0371706Y0278949D01*
X0371707Y0278947D01*
X0371712Y0278943D01*
X0371729Y0278929D01*
X0371749Y0278903D01*
X0371776Y0278882D01*
X0371842Y0278807D01*
X0372677Y0278166D01*
X0372767Y0278121D01*
X0372794Y0278101D01*
X0372824Y0278088D01*
X0372908Y0278032D01*
X0373881Y0277629D01*
X0373979Y0277610D01*
X0374010Y0277597D01*
X0374043Y0277593D01*
X0374138Y0277561D01*
X0375182Y0277423D01*
X0375249Y0277428D01*
X0375315Y0277414D01*
X0383015D01*
X0383081Y0277428D01*
X0383148Y0277423D01*
X0384193Y0277561D01*
X0384288Y0277593D01*
X0384321Y0277597D01*
X0384351Y0277610D01*
X0384450Y0277629D01*
X0385423Y0278032D01*
X0385506Y0278088D01*
X0385537Y0278101D01*
X0385563Y0278121D01*
X0385653Y0278166D01*
X0386489Y0278807D01*
X0386555Y0278882D01*
X0386581Y0278903D01*
X0386601Y0278929D01*
X0386618Y0278943D01*
X0386624Y0278947D01*
X0386625Y0278949D01*
X0386677Y0278995D01*
X0387318Y0279831D01*
X0387349Y0279893D01*
X0387415Y0279979D01*
X0387445Y0280052D01*
X0387451Y0280061D01*
X0387854Y0281034D01*
X0387857Y0281045D01*
X0387912Y0281180D01*
X0388082Y0282469D01*
X0387912Y0283757D01*
X0387857Y0283892D01*
X0387854Y0283903D01*
X0387451Y0284876D01*
X0387445Y0284885D01*
X0387415Y0284958D01*
X0387349Y0285044D01*
X0387318Y0285106D01*
X0386677Y0285942D01*
X0386625Y0285988D01*
X0386624Y0285990D01*
X0386618Y0285994D01*
X0386601Y0286008D01*
X0386581Y0286034D01*
X0386555Y0286055D01*
X0386489Y0286130D01*
X0385653Y0286771D01*
X0385563Y0286816D01*
X0385537Y0286836D01*
X0385506Y0286849D01*
X0385423Y0286905D01*
X0384450Y0287308D01*
X0384351Y0287327D01*
X0384321Y0287340D01*
X0384288Y0287344D01*
X0384193Y0287376D01*
X0383148Y0287514D01*
X0383081Y0287509D01*
X0383015Y0287523D01*
D02*
G37*
G36*
X0401075Y0285388D02*
X0400801Y0285334D01*
X0400144Y0284895D01*
X0399706Y0284239D01*
X0399651Y0283964D01*
X0401075D01*
Y0285388D01*
D02*
G37*
G36*
X0415309Y0282964D02*
X0413886D01*
Y0281541D01*
X0414160Y0281595D01*
X0414816Y0282034D01*
X0415255Y0282690D01*
X0415309Y0282964D01*
D02*
G37*
G36*
X0412886D02*
X0411462D01*
X0411517Y0282690D01*
X0411955Y0282034D01*
X0412611Y0281595D01*
X0412886Y0281541D01*
Y0282964D01*
D02*
G37*
G36*
X0403498D02*
X0402075D01*
Y0281541D01*
X0402349Y0281595D01*
X0403005Y0282034D01*
X0403444Y0282690D01*
X0403498Y0282964D01*
D02*
G37*
G36*
X0436508D02*
X0435084D01*
X0435139Y0282690D01*
X0435577Y0282034D01*
X0436234Y0281595D01*
X0436508Y0281541D01*
Y0282964D01*
D02*
G37*
G36*
X0427120D02*
X0425697D01*
Y0281541D01*
X0425971Y0281595D01*
X0426627Y0282034D01*
X0427066Y0282690D01*
X0427120Y0282964D01*
D02*
G37*
G36*
X0424697D02*
X0423273D01*
X0423328Y0282690D01*
X0423766Y0282034D01*
X0424423Y0281595D01*
X0424697Y0281541D01*
Y0282964D01*
D02*
G37*
G36*
X0401075D02*
X0399651D01*
X0399706Y0282690D01*
X0400144Y0282034D01*
X0400801Y0281595D01*
X0401075Y0281541D01*
Y0282964D01*
D02*
G37*
G36*
X0353831D02*
X0352407D01*
X0352462Y0282690D01*
X0352900Y0282034D01*
X0353556Y0281595D01*
X0353831Y0281541D01*
Y0282964D01*
D02*
G37*
G36*
X0508421Y0284500D02*
X0505000D01*
Y0281079D01*
X0505532Y0281149D01*
X0506493Y0281547D01*
X0507319Y0282181D01*
X0507953Y0283007D01*
X0508351Y0283968D01*
X0508421Y0284500D01*
D02*
G37*
G36*
X0504000D02*
X0500579D01*
X0500649Y0283968D01*
X0501047Y0283007D01*
X0501681Y0282181D01*
X0502507Y0281547D01*
X0503468Y0281149D01*
X0504000Y0281079D01*
Y0284500D01*
D02*
G37*
G36*
X0368065Y0282964D02*
X0366642D01*
Y0281541D01*
X0366916Y0281595D01*
X0367572Y0282034D01*
X0368011Y0282690D01*
X0368065Y0282964D01*
D02*
G37*
G36*
X0365642D02*
X0364218D01*
X0364272Y0282690D01*
X0364711Y0282034D01*
X0365367Y0281595D01*
X0365642Y0281541D01*
Y0282964D01*
D02*
G37*
G36*
X0356254D02*
X0354831D01*
Y0281541D01*
X0355105Y0281595D01*
X0355761Y0282034D01*
X0356200Y0282690D01*
X0356254Y0282964D01*
D02*
G37*
G36*
X0353831Y0285388D02*
X0353556Y0285334D01*
X0352900Y0284895D01*
X0352462Y0284239D01*
X0352407Y0283964D01*
X0353831D01*
Y0285388D01*
D02*
G37*
G36*
X0348000Y0291024D02*
X0346968Y0290888D01*
X0346007Y0290490D01*
X0345181Y0289856D01*
X0344547Y0289030D01*
X0344149Y0288069D01*
X0344013Y0287037D01*
X0344149Y0286005D01*
X0344547Y0285044D01*
X0345181Y0284218D01*
X0346007Y0283584D01*
X0346968Y0283186D01*
X0348000Y0283050D01*
X0349032Y0283186D01*
X0349993Y0283584D01*
X0350819Y0284218D01*
X0351453Y0285044D01*
X0351851Y0286005D01*
X0351987Y0287037D01*
X0351851Y0288069D01*
X0351453Y0289030D01*
X0350819Y0289856D01*
X0349993Y0290490D01*
X0349032Y0290888D01*
X0348000Y0291024D01*
D02*
G37*
G36*
X0328000D02*
X0326968Y0290888D01*
X0326007Y0290490D01*
X0325181Y0289856D01*
X0324547Y0289030D01*
X0324149Y0288069D01*
X0324013Y0287037D01*
X0324149Y0286005D01*
X0324547Y0285044D01*
X0325181Y0284218D01*
X0326007Y0283584D01*
X0326968Y0283186D01*
X0328000Y0283050D01*
X0329032Y0283186D01*
X0329993Y0283584D01*
X0330819Y0284218D01*
X0331453Y0285044D01*
X0331851Y0286005D01*
X0331987Y0287037D01*
X0331851Y0288069D01*
X0331453Y0289030D01*
X0330819Y0289856D01*
X0329993Y0290490D01*
X0329032Y0290888D01*
X0328000Y0291024D01*
D02*
G37*
G36*
X0366642Y0285388D02*
Y0283964D01*
X0368065D01*
X0368011Y0284239D01*
X0367572Y0284895D01*
X0366916Y0285334D01*
X0366642Y0285388D01*
D02*
G37*
G36*
X0365642D02*
X0365367Y0285334D01*
X0364711Y0284895D01*
X0364272Y0284239D01*
X0364218Y0283964D01*
X0365642D01*
Y0285388D01*
D02*
G37*
G36*
X0354831D02*
Y0283964D01*
X0356254D01*
X0356200Y0284239D01*
X0355761Y0284895D01*
X0355105Y0285334D01*
X0354831Y0285388D01*
D02*
G37*
G36*
X0497987Y0282964D02*
X0496563D01*
Y0281541D01*
X0496837Y0281595D01*
X0497493Y0282034D01*
X0497932Y0282690D01*
X0497987Y0282964D01*
D02*
G37*
G36*
X0450742D02*
X0449319D01*
Y0281541D01*
X0449593Y0281595D01*
X0450249Y0282034D01*
X0450688Y0282690D01*
X0450742Y0282964D01*
D02*
G37*
G36*
X0448319D02*
X0446895D01*
X0446950Y0282690D01*
X0447388Y0282034D01*
X0448044Y0281595D01*
X0448319Y0281541D01*
Y0282964D01*
D02*
G37*
G36*
X0438931D02*
X0437508D01*
Y0281541D01*
X0437782Y0281595D01*
X0438438Y0282034D01*
X0438877Y0282690D01*
X0438931Y0282964D01*
D02*
G37*
G36*
X0495563D02*
X0494139D01*
X0494194Y0282690D01*
X0494632Y0282034D01*
X0495289Y0281595D01*
X0495563Y0281541D01*
Y0282964D01*
D02*
G37*
G36*
X0474365D02*
X0472941D01*
Y0281541D01*
X0473215Y0281595D01*
X0473871Y0282034D01*
X0474310Y0282690D01*
X0474365Y0282964D01*
D02*
G37*
G36*
X0471941D02*
X0470517D01*
X0470572Y0282690D01*
X0471010Y0282034D01*
X0471667Y0281595D01*
X0471941Y0281541D01*
Y0282964D01*
D02*
G37*
G36*
X0353831Y0332632D02*
X0353556Y0332578D01*
X0352900Y0332139D01*
X0352462Y0331483D01*
X0352407Y0331209D01*
X0353831D01*
Y0332632D01*
D02*
G37*
G36*
X0343020D02*
Y0331209D01*
X0344443D01*
X0344389Y0331483D01*
X0343950Y0332139D01*
X0343294Y0332578D01*
X0343020Y0332632D01*
D02*
G37*
G36*
X0342020D02*
X0341745Y0332578D01*
X0341089Y0332139D01*
X0340651Y0331483D01*
X0340596Y0331209D01*
X0342020D01*
Y0332632D01*
D02*
G37*
G36*
X0378453D02*
Y0331209D01*
X0379876D01*
X0379822Y0331483D01*
X0379383Y0332139D01*
X0378727Y0332578D01*
X0378453Y0332632D01*
D02*
G37*
G36*
X0377453D02*
X0377178Y0332578D01*
X0376522Y0332139D01*
X0376083Y0331483D01*
X0376029Y0331209D01*
X0377453D01*
Y0332632D01*
D02*
G37*
G36*
X0354831D02*
Y0331209D01*
X0356254D01*
X0356200Y0331483D01*
X0355761Y0332139D01*
X0355105Y0332578D01*
X0354831Y0332632D01*
D02*
G37*
G36*
X0462553Y0330209D02*
X0461130D01*
Y0328785D01*
X0461404Y0328839D01*
X0462060Y0329278D01*
X0462499Y0329934D01*
X0462553Y0330209D01*
D02*
G37*
G36*
X0438931D02*
X0437508D01*
Y0328785D01*
X0437782Y0328839D01*
X0438438Y0329278D01*
X0438877Y0329934D01*
X0438931Y0330209D01*
D02*
G37*
G36*
X0436508D02*
X0435084D01*
X0435139Y0329934D01*
X0435577Y0329278D01*
X0436234Y0328839D01*
X0436508Y0328785D01*
Y0330209D01*
D02*
G37*
G36*
X0427120D02*
X0425697D01*
Y0328785D01*
X0425971Y0328839D01*
X0426627Y0329278D01*
X0427066Y0329934D01*
X0427120Y0330209D01*
D02*
G37*
G36*
X0460130D02*
X0458706D01*
X0458761Y0329934D01*
X0459199Y0329278D01*
X0459856Y0328839D01*
X0460130Y0328785D01*
Y0330209D01*
D02*
G37*
G36*
X0450742D02*
X0449319D01*
Y0328785D01*
X0449593Y0328839D01*
X0450249Y0329278D01*
X0450688Y0329934D01*
X0450742Y0330209D01*
D02*
G37*
G36*
X0448319D02*
X0446895D01*
X0446950Y0329934D01*
X0447388Y0329278D01*
X0448044Y0328839D01*
X0448319Y0328785D01*
Y0330209D01*
D02*
G37*
G36*
X0389264Y0332632D02*
X0388989Y0332578D01*
X0388333Y0332139D01*
X0387895Y0331483D01*
X0387840Y0331209D01*
X0389264D01*
Y0332632D01*
D02*
G37*
G36*
X0460130D02*
X0459856Y0332578D01*
X0459199Y0332139D01*
X0458761Y0331483D01*
X0458706Y0331209D01*
X0460130D01*
Y0332632D01*
D02*
G37*
G36*
X0449319D02*
Y0331209D01*
X0450742D01*
X0450688Y0331483D01*
X0450249Y0332139D01*
X0449593Y0332578D01*
X0449319Y0332632D01*
D02*
G37*
G36*
X0448319D02*
X0448044Y0332578D01*
X0447388Y0332139D01*
X0446950Y0331483D01*
X0446895Y0331209D01*
X0448319D01*
Y0332632D01*
D02*
G37*
G36*
X0418758Y0374331D02*
X0415335D01*
Y0370908D01*
X0415867Y0370978D01*
X0416829Y0371376D01*
X0417655Y0372010D01*
X0418289Y0372836D01*
X0418688Y0373798D01*
X0418758Y0374331D01*
D02*
G37*
G36*
X0414335D02*
X0410912D01*
X0410982Y0373798D01*
X0411380Y0372836D01*
X0412014Y0372010D01*
X0412840Y0371376D01*
X0413802Y0370978D01*
X0414335Y0370908D01*
Y0374331D01*
D02*
G37*
G36*
X0461130Y0332632D02*
Y0331209D01*
X0462553D01*
X0462499Y0331483D01*
X0462060Y0332139D01*
X0461404Y0332578D01*
X0461130Y0332632D01*
D02*
G37*
G36*
X0437508D02*
Y0331209D01*
X0438931D01*
X0438877Y0331483D01*
X0438438Y0332139D01*
X0437782Y0332578D01*
X0437508Y0332632D01*
D02*
G37*
G36*
X0413886D02*
Y0331209D01*
X0415309D01*
X0415255Y0331483D01*
X0414816Y0332139D01*
X0414160Y0332578D01*
X0413886Y0332632D01*
D02*
G37*
G36*
X0412886D02*
X0412611Y0332578D01*
X0411955Y0332139D01*
X0411517Y0331483D01*
X0411462Y0331209D01*
X0412886D01*
Y0332632D01*
D02*
G37*
G36*
X0390264D02*
Y0331209D01*
X0391687D01*
X0391633Y0331483D01*
X0391194Y0332139D01*
X0390538Y0332578D01*
X0390264Y0332632D01*
D02*
G37*
G36*
X0436508D02*
X0436234Y0332578D01*
X0435577Y0332139D01*
X0435139Y0331483D01*
X0435084Y0331209D01*
X0436508D01*
Y0332632D01*
D02*
G37*
G36*
X0425697D02*
Y0331209D01*
X0427120D01*
X0427066Y0331483D01*
X0426627Y0332139D01*
X0425971Y0332578D01*
X0425697Y0332632D01*
D02*
G37*
G36*
X0424697D02*
X0424423Y0332578D01*
X0423766Y0332139D01*
X0423328Y0331483D01*
X0423273Y0331209D01*
X0424697D01*
Y0332632D01*
D02*
G37*
G36*
X0449319Y0309010D02*
Y0307587D01*
X0450742D01*
X0450688Y0307861D01*
X0450249Y0308517D01*
X0449593Y0308956D01*
X0449319Y0309010D01*
D02*
G37*
G36*
X0448319D02*
X0448044Y0308956D01*
X0447388Y0308517D01*
X0446950Y0307861D01*
X0446895Y0307587D01*
X0448319D01*
Y0309010D01*
D02*
G37*
G36*
X0354831D02*
Y0307587D01*
X0356254D01*
X0356200Y0307861D01*
X0355761Y0308517D01*
X0355105Y0308956D01*
X0354831Y0309010D01*
D02*
G37*
G36*
X0489657Y0318397D02*
X0488234D01*
X0488288Y0318123D01*
X0488727Y0317467D01*
X0489383Y0317028D01*
X0489657Y0316974D01*
Y0318397D01*
D02*
G37*
G36*
X0496563Y0309010D02*
Y0307587D01*
X0497987D01*
X0497932Y0307861D01*
X0497493Y0308517D01*
X0496837Y0308956D01*
X0496563Y0309010D01*
D02*
G37*
G36*
X0495563D02*
X0495289Y0308956D01*
X0494632Y0308517D01*
X0494194Y0307861D01*
X0494139Y0307587D01*
X0495563D01*
Y0309010D01*
D02*
G37*
G36*
X0353831D02*
X0353556Y0308956D01*
X0352900Y0308517D01*
X0352462Y0307861D01*
X0352407Y0307587D01*
X0353831D01*
Y0309010D01*
D02*
G37*
G36*
X0497987Y0306587D02*
X0496563D01*
Y0305163D01*
X0496837Y0305217D01*
X0497493Y0305656D01*
X0497932Y0306312D01*
X0497987Y0306587D01*
D02*
G37*
G36*
X0495563D02*
X0494139D01*
X0494194Y0306312D01*
X0494632Y0305656D01*
X0495289Y0305217D01*
X0495563Y0305163D01*
Y0306587D01*
D02*
G37*
G36*
X0450742D02*
X0449319D01*
Y0305163D01*
X0449593Y0305217D01*
X0450249Y0305656D01*
X0450688Y0306312D01*
X0450742Y0306587D01*
D02*
G37*
G36*
X0343020Y0309010D02*
Y0307587D01*
X0344443D01*
X0344389Y0307861D01*
X0343950Y0308517D01*
X0343294Y0308956D01*
X0343020Y0309010D01*
D02*
G37*
G36*
X0342020D02*
X0341745Y0308956D01*
X0341089Y0308517D01*
X0340651Y0307861D01*
X0340596Y0307587D01*
X0342020D01*
Y0309010D01*
D02*
G37*
G36*
X0356000Y0366023D02*
X0355226Y0365869D01*
X0354569Y0365431D01*
X0354131Y0364774D01*
X0353977Y0364000D01*
X0354131Y0363226D01*
X0354569Y0362569D01*
X0355226Y0362131D01*
X0355825Y0362012D01*
X0367471Y0350366D01*
Y0311098D01*
X0367369Y0311031D01*
X0366931Y0310374D01*
X0366777Y0309600D01*
X0366931Y0308826D01*
X0367369Y0308169D01*
X0368026Y0307731D01*
X0368800Y0307577D01*
X0369574Y0307731D01*
X0370231Y0308169D01*
X0370669Y0308826D01*
X0370823Y0309600D01*
X0370669Y0310374D01*
X0370529Y0310583D01*
Y0351000D01*
X0370413Y0351585D01*
X0370081Y0352081D01*
X0357988Y0364175D01*
X0357869Y0364774D01*
X0357431Y0365431D01*
X0356774Y0365869D01*
X0356000Y0366023D01*
D02*
G37*
G36*
X0492081Y0318397D02*
X0490657D01*
Y0316974D01*
X0490932Y0317028D01*
X0491588Y0317467D01*
X0492027Y0318123D01*
X0492081Y0318397D01*
D02*
G37*
G36*
X0391687Y0330209D02*
X0390264D01*
Y0328785D01*
X0390538Y0328839D01*
X0391194Y0329278D01*
X0391633Y0329934D01*
X0391687Y0330209D01*
D02*
G37*
G36*
X0389264D02*
X0387840D01*
X0387895Y0329934D01*
X0388333Y0329278D01*
X0388989Y0328839D01*
X0389264Y0328785D01*
Y0330209D01*
D02*
G37*
G36*
X0379876D02*
X0378453D01*
Y0328785D01*
X0378727Y0328839D01*
X0379383Y0329278D01*
X0379822Y0329934D01*
X0379876Y0330209D01*
D02*
G37*
G36*
X0424697D02*
X0423273D01*
X0423328Y0329934D01*
X0423766Y0329278D01*
X0424423Y0328839D01*
X0424697Y0328785D01*
Y0330209D01*
D02*
G37*
G36*
X0415309D02*
X0413886D01*
Y0328785D01*
X0414160Y0328839D01*
X0414816Y0329278D01*
X0415255Y0329934D01*
X0415309Y0330209D01*
D02*
G37*
G36*
X0412886D02*
X0411462D01*
X0411517Y0329934D01*
X0411955Y0329278D01*
X0412611Y0328839D01*
X0412886Y0328785D01*
Y0330209D01*
D02*
G37*
G36*
X0377453D02*
X0376029D01*
X0376083Y0329934D01*
X0376522Y0329278D01*
X0377178Y0328839D01*
X0377453Y0328785D01*
Y0330209D01*
D02*
G37*
G36*
X0342020D02*
X0340596D01*
X0340651Y0329934D01*
X0341089Y0329278D01*
X0341745Y0328839D01*
X0342020Y0328785D01*
Y0330209D01*
D02*
G37*
G36*
X0490657Y0320821D02*
Y0319397D01*
X0492081D01*
X0492027Y0319672D01*
X0491588Y0320328D01*
X0490932Y0320767D01*
X0490657Y0320821D01*
D02*
G37*
G36*
X0489657D02*
X0489383Y0320767D01*
X0488727Y0320328D01*
X0488288Y0319672D01*
X0488234Y0319397D01*
X0489657D01*
Y0320821D01*
D02*
G37*
G36*
X0356254Y0330209D02*
X0354831D01*
Y0328785D01*
X0355105Y0328839D01*
X0355761Y0329278D01*
X0356200Y0329934D01*
X0356254Y0330209D01*
D02*
G37*
G36*
X0353831D02*
X0352407D01*
X0352462Y0329934D01*
X0352900Y0329278D01*
X0353556Y0328839D01*
X0353831Y0328785D01*
Y0330209D01*
D02*
G37*
G36*
X0344443D02*
X0343020D01*
Y0328785D01*
X0343294Y0328839D01*
X0343950Y0329278D01*
X0344389Y0329934D01*
X0344443Y0330209D01*
D02*
G37*
%LPD*%
D10*
X0586661Y0294657D02*
D03*
X0593157D02*
D03*
X0668161Y0282358D02*
D03*
X0674657D02*
D03*
X0654543Y0282343D02*
D03*
X0661039D02*
D03*
D11*
X0635900Y0327700D02*
D03*
X0281700Y0328000D02*
D03*
X0203100Y0327700D02*
D03*
X0557400D02*
D03*
D12*
X0593157Y0294657D02*
X0602300Y0285514D01*
Y0284900D02*
Y0285514D01*
X0526500Y0297500D02*
X0534500Y0289500D01*
Y0285000D02*
Y0289500D01*
X0661039Y0282343D02*
X0668146D01*
X0668161Y0282358D01*
X0667218Y0283300D02*
Y0308183D01*
Y0283300D02*
X0668161Y0282358D01*
D13*
X0568000Y0285000D02*
X0577658Y0294657D01*
X0586661D01*
X0182300Y0286600D02*
X0187800Y0292100D01*
X0182100Y0286600D02*
X0182300D01*
X0533716Y0299184D02*
X0605116D01*
X0514700Y0318200D02*
X0533716Y0299184D01*
X0514700Y0318200D02*
Y0360400D01*
X0495100Y0380000D02*
X0514700Y0360400D01*
X0605116Y0299184D02*
X0612200Y0292100D01*
X0308437Y0287037D02*
X0338900Y0317500D01*
X0308000Y0287037D02*
X0308437D01*
X0612200Y0286000D02*
Y0292100D01*
X0258000Y0287037D02*
Y0291100D01*
X0249600Y0299500D02*
X0258000Y0291100D01*
X0232937Y0292100D02*
X0238000Y0287037D01*
X0187800Y0292100D02*
X0232937D01*
X0514500Y0284000D02*
Y0285000D01*
X0524500Y0284000D02*
Y0285000D01*
X0480500Y0287500D02*
Y0319165D01*
Y0287500D02*
X0489000Y0279000D01*
X0489500D01*
X0284337Y0376000D02*
X0354000D01*
X0374500Y0355500D01*
X0424835Y0374831D02*
X0480500Y0319165D01*
X0248337Y0380000D02*
X0495100D01*
X0434874Y0374870D02*
X0446130D01*
X0514500Y0306500D01*
Y0285000D02*
Y0306500D01*
X0374500Y0355500D02*
X0389000D01*
X0396000Y0362500D01*
X0400500D01*
X0427000Y0365000D02*
X0431000D01*
X0436000Y0360000D01*
X0237500Y0369163D02*
X0248337Y0380000D01*
X0277500Y0369163D02*
X0284337Y0376000D01*
X0369000Y0309600D02*
Y0351000D01*
X0356000Y0364000D02*
X0369000Y0351000D01*
X0298000Y0287037D02*
X0332963Y0322000D01*
X0338500D01*
X0523100Y0360500D02*
X0664901D01*
X0522800Y0356800D02*
X0658601D01*
X0514500Y0284000D02*
X0524081Y0274419D01*
X0666718D01*
X0674657Y0282358D01*
X0677218Y0284919D01*
Y0308183D01*
X0654543Y0282343D02*
X0660600Y0288399D01*
Y0311565D01*
X0667218Y0318183D01*
X0658601Y0356800D02*
X0667218Y0348183D01*
X0664901Y0360500D02*
X0677218Y0348183D01*
X0524500Y0284000D02*
X0532081Y0276419D01*
X0648620D01*
X0654543Y0282343D01*
D14*
X0380000Y0306200D02*
X0431400D01*
X0379850Y0306350D02*
X0380000Y0306200D01*
X0337500Y0287037D02*
X0347963Y0297500D01*
X0370563D01*
X0404835Y0331772D01*
Y0374870D01*
X0288000Y0369163D02*
X0314663Y0342500D01*
X0359800D01*
X0513100Y0370700D02*
X0516200Y0373800D01*
X0565100D01*
X0667218Y0328183D02*
X0677218Y0338183D01*
X0622300Y0284900D02*
X0640400D01*
X0656800Y0301300D01*
Y0317765D01*
X0667218Y0328183D01*
X0558000Y0285000D02*
X0563581Y0279419D01*
X0618600D01*
X0622300Y0283119D01*
Y0284900D01*
D15*
X0667218Y0308183D02*
D03*
D16*
Y0318183D02*
D03*
Y0328183D02*
D03*
Y0338183D02*
D03*
Y0348183D02*
D03*
X0677218Y0308183D02*
D03*
Y0318183D02*
D03*
Y0328183D02*
D03*
Y0338183D02*
D03*
Y0348183D02*
D03*
D17*
X0635900Y0327700D02*
D03*
X0281700Y0328000D02*
D03*
X0203100Y0327700D02*
D03*
X0557400D02*
D03*
D18*
X0198000Y0369163D02*
D03*
X0208000D02*
D03*
X0218000D02*
D03*
X0228000D02*
D03*
X0238000D02*
D03*
X0248000D02*
D03*
X0258000D02*
D03*
X0268000D02*
D03*
X0278000D02*
D03*
X0288000D02*
D03*
X0298000D02*
D03*
X0308000D02*
D03*
X0258000Y0287037D02*
D03*
X0268000D02*
D03*
X0278000D02*
D03*
X0248000D02*
D03*
X0238000D02*
D03*
X0228000D02*
D03*
X0218000D02*
D03*
X0288000Y0287076D02*
D03*
X0298000Y0287037D02*
D03*
X0308000D02*
D03*
X0318000D02*
D03*
X0328000D02*
D03*
X0338000D02*
D03*
X0348000D02*
D03*
X0208000D02*
D03*
X0198000D02*
D03*
X0404835Y0374870D02*
D03*
D19*
X0434874D02*
D03*
X0424835Y0374831D02*
D03*
X0414835D02*
D03*
D20*
X0460898Y0282469D02*
D03*
X0379165D02*
D03*
X0379205Y0372232D02*
D03*
X0460898D02*
D03*
D21*
X0602300Y0284900D02*
D03*
X0578000Y0285000D02*
D03*
X0588400Y0371600D02*
D03*
X0534500Y0285000D02*
D03*
D22*
X0612300Y0284900D02*
D03*
X0622300D02*
D03*
X0568000Y0285000D02*
D03*
X0558000D02*
D03*
X0578400Y0371600D02*
D03*
X0504500Y0285000D02*
D03*
X0514500D02*
D03*
X0524500D02*
D03*
X0431400Y0306200D02*
D03*
X0526500Y0297500D02*
D03*
X0513100Y0370700D02*
D03*
X0359800Y0342500D02*
D03*
X0565100Y0373800D02*
D03*
D23*
X0496063Y0307086D02*
D03*
Y0283465D02*
D03*
X0490157Y0318898D02*
D03*
X0472441Y0283465D02*
D03*
X0460630Y0330709D02*
D03*
X0448819D02*
D03*
Y0307086D02*
D03*
Y0283465D02*
D03*
X0437008Y0330709D02*
D03*
Y0283465D02*
D03*
X0425197Y0330709D02*
D03*
Y0283465D02*
D03*
X0413386Y0330709D02*
D03*
Y0283465D02*
D03*
X0401575D02*
D03*
X0389764Y0330709D02*
D03*
X0377953D02*
D03*
X0366142Y0283465D02*
D03*
X0354331Y0330709D02*
D03*
Y0307086D02*
D03*
Y0283465D02*
D03*
X0342520Y0330709D02*
D03*
Y0307086D02*
D03*
X0336614Y0295275D02*
D03*
X0182100Y0286600D02*
D03*
X0338900Y0317500D02*
D03*
X0249600Y0299500D02*
D03*
X0489500Y0279000D02*
D03*
X0356000Y0364000D02*
D03*
X0400500Y0362500D02*
D03*
X0427000Y0365000D02*
D03*
X0436000Y0360000D02*
D03*
X0368800Y0309600D02*
D03*
X0273100Y0338900D02*
D03*
X0200400Y0341000D02*
D03*
X0338500Y0322000D02*
D03*
X0523100Y0360500D02*
D03*
X0522800Y0356800D02*
D03*
X0551400Y0339700D02*
D03*
X0625300Y0336600D02*
D03*
M02*
