G04 Layer_Color=65535*
%FSAX25Y25*%
%MOIN*%
G70*
G01*
G75*
%ADD39C,0.00787*%
%ADD40C,0.00394*%
D39*
X0661490Y0327700D02*
G03*
X0661490Y0327700I-0025591J0000000D01*
G01*
X0307291Y0328000D02*
G03*
X0307291Y0328000I-0025591J0000000D01*
G01*
X0228691Y0327700D02*
G03*
X0228691Y0327700I-0025591J0000000D01*
G01*
X0582991D02*
G03*
X0582991Y0327700I-0025591J0000000D01*
G01*
X0584200Y0297315D02*
X0595617D01*
X0584200Y0292000D02*
Y0297315D01*
Y0292000D02*
X0595617D01*
Y0297315D01*
X0665700Y0285015D02*
X0677117D01*
X0665700Y0279700D02*
Y0285015D01*
Y0279700D02*
X0677117D01*
Y0285015D01*
X0652083Y0279685D02*
Y0285000D01*
X0663500D01*
Y0279685D02*
Y0285000D01*
X0652083Y0279685D02*
X0663500D01*
X0367039Y0274358D02*
Y0380500D01*
Y0274358D02*
X0473181D01*
Y0380500D01*
X0367039D02*
X0473181D01*
X0597300Y0279900D02*
X0627300D01*
Y0289900D01*
X0597300D02*
X0627300D01*
X0597300Y0279900D02*
Y0289900D01*
X0553000Y0290000D02*
X0583000D01*
X0553000Y0280000D02*
Y0290000D01*
Y0280000D02*
X0583000D01*
Y0290000D01*
X0573400Y0366600D02*
Y0376600D01*
X0593400D01*
Y0366600D02*
Y0376600D01*
X0573400Y0366600D02*
X0593400D01*
X0539500Y0280000D02*
Y0290000D01*
X0499500Y0280000D02*
X0539500D01*
X0499500Y0290000D02*
X0539500D01*
X0499500Y0280000D02*
Y0290000D01*
D40*
X0584400Y0298800D02*
Y0300768D01*
X0585384D01*
X0585712Y0300440D01*
Y0299784D01*
X0585384Y0299456D01*
X0584400D01*
X0585056D02*
X0585712Y0298800D01*
X0586368Y0300768D02*
X0587680D01*
Y0300440D01*
X0586368Y0299128D01*
Y0298800D01*
X0541000Y0341968D02*
X0542312D01*
X0541656D01*
Y0340000D01*
X0543952D02*
Y0341968D01*
X0542968Y0340984D01*
X0544280D01*
X0187600Y0343668D02*
X0188912D01*
X0188256D01*
Y0341700D01*
X0189568Y0343340D02*
X0189896Y0343668D01*
X0190552D01*
X0190880Y0343340D01*
Y0343012D01*
X0190552Y0342684D01*
X0190224D01*
X0190552D01*
X0190880Y0342356D01*
Y0342028D01*
X0190552Y0341700D01*
X0189896D01*
X0189568Y0342028D01*
X0266300Y0343268D02*
X0267612D01*
X0266956D01*
Y0341300D01*
X0269580D02*
X0268268D01*
X0269580Y0342612D01*
Y0342940D01*
X0269252Y0343268D01*
X0268596D01*
X0268268Y0342940D01*
X0618400Y0341368D02*
X0619712D01*
X0619056D01*
Y0339400D01*
X0620368D02*
X0621024D01*
X0620696D01*
Y0341368D01*
X0620368Y0341040D01*
X0647700Y0282100D02*
Y0284068D01*
X0648684D01*
X0649012Y0283740D01*
Y0283084D01*
X0648684Y0282756D01*
X0647700D01*
X0648356D02*
X0649012Y0282100D01*
X0650980Y0284068D02*
X0650324Y0283740D01*
X0649668Y0283084D01*
Y0282428D01*
X0649996Y0282100D01*
X0650652D01*
X0650980Y0282428D01*
Y0282756D01*
X0650652Y0283084D01*
X0649668D01*
X0678200Y0281700D02*
Y0283668D01*
X0679184D01*
X0679512Y0283340D01*
Y0282684D01*
X0679184Y0282356D01*
X0678200D01*
X0678856D02*
X0679512Y0281700D01*
X0681480Y0283668D02*
X0680168D01*
Y0282684D01*
X0680824Y0283012D01*
X0681152D01*
X0681480Y0282684D01*
Y0282028D01*
X0681152Y0281700D01*
X0680496D01*
X0680168Y0282028D01*
X0573400Y0378400D02*
Y0380368D01*
X0574384D01*
X0574712Y0380040D01*
Y0379384D01*
X0574384Y0379056D01*
X0573400D01*
X0576680Y0380368D02*
X0576024Y0380040D01*
X0575368Y0379384D01*
Y0378728D01*
X0575696Y0378400D01*
X0576352D01*
X0576680Y0378728D01*
Y0379056D01*
X0576352Y0379384D01*
X0575368D01*
X0361400Y0374800D02*
Y0376768D01*
X0362384D01*
X0362712Y0376440D01*
Y0375784D01*
X0362384Y0375456D01*
X0361400D01*
X0364680Y0376768D02*
X0363368D01*
Y0375784D01*
X0364024Y0376112D01*
X0364352D01*
X0364680Y0375784D01*
Y0375128D01*
X0364352Y0374800D01*
X0363696D01*
X0363368Y0375128D01*
X0541300Y0287100D02*
Y0289068D01*
X0542284D01*
X0542612Y0288740D01*
Y0288084D01*
X0542284Y0287756D01*
X0541300D01*
X0544252Y0287100D02*
Y0289068D01*
X0543268Y0288084D01*
X0544580D01*
X0585100Y0287300D02*
Y0289268D01*
X0586084D01*
X0586412Y0288940D01*
Y0288284D01*
X0586084Y0287956D01*
X0585100D01*
X0587068Y0288940D02*
X0587396Y0289268D01*
X0588052D01*
X0588380Y0288940D01*
Y0288612D01*
X0588052Y0288284D01*
X0587724D01*
X0588052D01*
X0588380Y0287956D01*
Y0287628D01*
X0588052Y0287300D01*
X0587396D01*
X0587068Y0287628D01*
X0629300Y0287300D02*
Y0289268D01*
X0630284D01*
X0630612Y0288940D01*
Y0288284D01*
X0630284Y0287956D01*
X0629300D01*
X0632580Y0287300D02*
X0631268D01*
X0632580Y0288612D01*
Y0288940D01*
X0632252Y0289268D01*
X0631596D01*
X0631268Y0288940D01*
X0573900Y0362700D02*
X0574556D01*
X0574228D01*
Y0364668D01*
X0573900Y0364340D01*
X0576852Y0362700D02*
X0575540D01*
X0576852Y0364012D01*
Y0364340D01*
X0576524Y0364668D01*
X0575868D01*
X0575540Y0364340D01*
X0577508Y0364668D02*
Y0363356D01*
X0578164Y0362700D01*
X0578820Y0363356D01*
Y0364668D01*
X0562084Y0278068D02*
X0561428D01*
X0561100Y0277740D01*
Y0276428D01*
X0561428Y0276100D01*
X0562084D01*
X0562412Y0276428D01*
Y0277740D01*
X0562084Y0278068D01*
X0563068Y0276100D02*
Y0277412D01*
X0564052D01*
X0564380Y0277084D01*
Y0276100D01*
X0566020D02*
X0565364D01*
X0565036Y0276428D01*
Y0277084D01*
X0565364Y0277412D01*
X0566020D01*
X0566348Y0277084D01*
Y0276756D01*
X0565036D01*
X0567004Y0275772D02*
X0568316D01*
X0568971Y0277412D02*
Y0276428D01*
X0569299Y0276100D01*
X0569627Y0276428D01*
X0569955Y0276100D01*
X0570283Y0276428D01*
Y0277412D01*
X0570939Y0276100D02*
X0571595D01*
X0571267D01*
Y0277412D01*
X0570939D01*
X0572579D02*
Y0276100D01*
Y0276756D01*
X0572907Y0277084D01*
X0573235Y0277412D01*
X0573563D01*
X0575531Y0276100D02*
X0574875D01*
X0574547Y0276428D01*
Y0277084D01*
X0574875Y0277412D01*
X0575531D01*
X0575859Y0277084D01*
Y0276756D01*
X0574547D01*
X0578400Y0276984D02*
X0579712D01*
X0579056Y0277640D02*
Y0276328D01*
X0580368Y0277640D02*
X0580696Y0277968D01*
X0581352D01*
X0581680Y0277640D01*
Y0277312D01*
X0581352Y0276984D01*
X0581024D01*
X0581352D01*
X0581680Y0276656D01*
Y0276328D01*
X0581352Y0276000D01*
X0580696D01*
X0580368Y0276328D01*
X0582336Y0277968D02*
Y0276656D01*
X0582992Y0276000D01*
X0583648Y0276656D01*
Y0277968D01*
X0584304Y0277640D02*
X0584632Y0277968D01*
X0585288D01*
X0585615Y0277640D01*
Y0277312D01*
X0585288Y0276984D01*
X0584960D01*
X0585288D01*
X0585615Y0276656D01*
Y0276328D01*
X0585288Y0276000D01*
X0584632D01*
X0584304Y0276328D01*
X0553812Y0277840D02*
X0553484Y0278168D01*
X0552828D01*
X0552500Y0277840D01*
Y0276528D01*
X0552828Y0276200D01*
X0553484D01*
X0553812Y0276528D01*
Y0277184D01*
X0553156D01*
X0554468Y0276200D02*
Y0278168D01*
X0555780Y0276200D01*
Y0278168D01*
X0556436D02*
Y0276200D01*
X0557420D01*
X0557748Y0276528D01*
Y0277840D01*
X0557420Y0278168D01*
X0556436D01*
X0503012Y0277740D02*
X0502684Y0278068D01*
X0502028D01*
X0501700Y0277740D01*
Y0276428D01*
X0502028Y0276100D01*
X0502684D01*
X0503012Y0276428D01*
Y0277084D01*
X0502356D01*
X0503668Y0276100D02*
Y0278068D01*
X0504980Y0276100D01*
Y0278068D01*
X0505636D02*
Y0276100D01*
X0506620D01*
X0506948Y0276428D01*
Y0277740D01*
X0506620Y0278068D01*
X0505636D01*
X0587212Y0364440D02*
X0586884Y0364768D01*
X0586228D01*
X0585900Y0364440D01*
Y0363128D01*
X0586228Y0362800D01*
X0586884D01*
X0587212Y0363128D01*
Y0363784D01*
X0586556D01*
X0587868Y0362800D02*
Y0364768D01*
X0589180Y0362800D01*
Y0364768D01*
X0589836D02*
Y0362800D01*
X0590820D01*
X0591148Y0363128D01*
Y0364440D01*
X0590820Y0364768D01*
X0589836D01*
X0622012Y0277740D02*
X0621684Y0278068D01*
X0621028D01*
X0620700Y0277740D01*
Y0276428D01*
X0621028Y0276100D01*
X0621684D01*
X0622012Y0276428D01*
Y0277084D01*
X0621356D01*
X0622668Y0276100D02*
Y0278068D01*
X0623980Y0276100D01*
Y0278068D01*
X0624636D02*
Y0276100D01*
X0625620D01*
X0625948Y0276428D01*
Y0277740D01*
X0625620Y0278068D01*
X0624636D01*
X0413712Y0370240D02*
X0413384Y0370568D01*
X0412728D01*
X0412400Y0370240D01*
Y0368928D01*
X0412728Y0368600D01*
X0413384D01*
X0413712Y0368928D01*
Y0369584D01*
X0413056D01*
X0414368Y0368600D02*
Y0370568D01*
X0415680Y0368600D01*
Y0370568D01*
X0416336D02*
Y0368600D01*
X0417320D01*
X0417648Y0368928D01*
Y0370240D01*
X0417320Y0370568D01*
X0416336D01*
X0400200Y0369584D02*
X0401512D01*
X0400856Y0370240D02*
Y0368928D01*
X0402168Y0370240D02*
X0402496Y0370568D01*
X0403152D01*
X0403480Y0370240D01*
Y0369912D01*
X0403152Y0369584D01*
X0402824D01*
X0403152D01*
X0403480Y0369256D01*
Y0368928D01*
X0403152Y0368600D01*
X0402496D01*
X0402168Y0368928D01*
X0404136Y0370568D02*
Y0369256D01*
X0404792Y0368600D01*
X0405448Y0369256D01*
Y0370568D01*
X0406104Y0370240D02*
X0406432Y0370568D01*
X0407088D01*
X0407415Y0370240D01*
Y0369912D01*
X0407088Y0369584D01*
X0406760D01*
X0407088D01*
X0407415Y0369256D01*
Y0368928D01*
X0407088Y0368600D01*
X0406432D01*
X0406104Y0368928D01*
X0424212Y0370240D02*
X0423884Y0370568D01*
X0423228D01*
X0422900Y0370240D01*
Y0369912D01*
X0423228Y0369584D01*
X0423884D01*
X0424212Y0369256D01*
Y0368928D01*
X0423884Y0368600D01*
X0423228D01*
X0422900Y0368928D01*
X0426180Y0370240D02*
X0425852Y0370568D01*
X0425196D01*
X0424868Y0370240D01*
Y0368928D01*
X0425196Y0368600D01*
X0425852D01*
X0426180Y0368928D01*
X0426836Y0370568D02*
Y0368600D01*
X0428148D01*
X0434012Y0370140D02*
X0433684Y0370468D01*
X0433028D01*
X0432700Y0370140D01*
Y0369812D01*
X0433028Y0369484D01*
X0433684D01*
X0434012Y0369156D01*
Y0368828D01*
X0433684Y0368500D01*
X0433028D01*
X0432700Y0368828D01*
X0434668Y0370468D02*
Y0368500D01*
X0435652D01*
X0435980Y0368828D01*
Y0370140D01*
X0435652Y0370468D01*
X0434668D01*
X0436636Y0368500D02*
Y0369812D01*
X0437292Y0370468D01*
X0437948Y0369812D01*
Y0368500D01*
Y0369484D01*
X0436636D01*
X0513412Y0277540D02*
X0513084Y0277868D01*
X0512428D01*
X0512100Y0277540D01*
Y0277212D01*
X0512428Y0276884D01*
X0513084D01*
X0513412Y0276556D01*
Y0276228D01*
X0513084Y0275900D01*
X0512428D01*
X0512100Y0276228D01*
X0514068Y0277868D02*
Y0275900D01*
X0515052D01*
X0515380Y0276228D01*
Y0277540D01*
X0515052Y0277868D01*
X0514068D01*
X0516036Y0275900D02*
Y0277212D01*
X0516692Y0277868D01*
X0517348Y0277212D01*
Y0275900D01*
Y0276884D01*
X0516036D01*
X0524112Y0277740D02*
X0523784Y0278068D01*
X0523128D01*
X0522800Y0277740D01*
Y0277412D01*
X0523128Y0277084D01*
X0523784D01*
X0524112Y0276756D01*
Y0276428D01*
X0523784Y0276100D01*
X0523128D01*
X0522800Y0276428D01*
X0526080Y0277740D02*
X0525752Y0278068D01*
X0525096D01*
X0524768Y0277740D01*
Y0276428D01*
X0525096Y0276100D01*
X0525752D01*
X0526080Y0276428D01*
X0526736Y0278068D02*
Y0276100D01*
X0528048D01*
X0531900Y0276984D02*
X0533212D01*
X0532556Y0277640D02*
Y0276328D01*
X0533868Y0277640D02*
X0534196Y0277968D01*
X0534852D01*
X0535180Y0277640D01*
Y0277312D01*
X0534852Y0276984D01*
X0534524D01*
X0534852D01*
X0535180Y0276656D01*
Y0276328D01*
X0534852Y0276000D01*
X0534196D01*
X0533868Y0276328D01*
X0535836Y0277968D02*
Y0276656D01*
X0536492Y0276000D01*
X0537148Y0276656D01*
Y0277968D01*
X0537804Y0277640D02*
X0538132Y0277968D01*
X0538788D01*
X0539115Y0277640D01*
Y0277312D01*
X0538788Y0276984D01*
X0538459D01*
X0538788D01*
X0539115Y0276656D01*
Y0276328D01*
X0538788Y0276000D01*
X0538132D01*
X0537804Y0276328D01*
X0598000Y0276984D02*
X0599312D01*
X0598656Y0277640D02*
Y0276328D01*
X0599968Y0277640D02*
X0600296Y0277968D01*
X0600952D01*
X0601280Y0277640D01*
Y0277312D01*
X0600952Y0276984D01*
X0600624D01*
X0600952D01*
X0601280Y0276656D01*
Y0276328D01*
X0600952Y0276000D01*
X0600296D01*
X0599968Y0276328D01*
X0601936Y0277968D02*
Y0276656D01*
X0602592Y0276000D01*
X0603248Y0276656D01*
Y0277968D01*
X0603904Y0277640D02*
X0604232Y0277968D01*
X0604887D01*
X0605216Y0277640D01*
Y0277312D01*
X0604887Y0276984D01*
X0604560D01*
X0604887D01*
X0605216Y0276656D01*
Y0276328D01*
X0604887Y0276000D01*
X0604232D01*
X0603904Y0276328D01*
X0609400Y0277968D02*
Y0276000D01*
Y0276984D01*
X0610712D01*
Y0277968D01*
Y0276000D01*
X0611368D02*
Y0277312D01*
X0612024Y0277968D01*
X0612680Y0277312D01*
Y0276000D01*
Y0276984D01*
X0611368D01*
X0613336Y0277968D02*
Y0276000D01*
X0614648D01*
X0615304Y0277968D02*
Y0276000D01*
X0616615D01*
M02*
