G04 Layer_Color=128*
%FSAX25Y25*%
%MOIN*%
G70*
G01*
G75*
%ADD10R,0.02756X0.03347*%
%ADD24R,0.15748X0.11811*%
%ADD25R,0.05905X0.04567*%
%ADD26R,0.04528X0.02362*%
%ADD27R,0.05118X0.02559*%
%ADD28R,0.01772X0.04528*%
%ADD29R,0.01772X0.04331*%
%ADD30R,0.06299X0.02559*%
%ADD31R,0.08425X0.02559*%
%ADD32R,0.07087X0.05315*%
%ADD33R,0.05512X0.03150*%
%ADD34R,0.04724X0.04724*%
%ADD35R,0.03740X0.03347*%
%ADD36R,0.11220X0.04921*%
%ADD37R,0.25590X0.21850*%
D10*
X0263939Y0377857D02*
D03*
X0257443D02*
D03*
X0226857Y0377842D02*
D03*
X0220361D02*
D03*
X0240961D02*
D03*
X0247457D02*
D03*
X0272043Y0377857D02*
D03*
X0278539D02*
D03*
D24*
X0471916Y0308068D02*
D03*
Y0355313D02*
D03*
D25*
X0160944Y0351858D02*
D03*
D26*
X0192342Y0352961D02*
D03*
D27*
X0215669Y0352862D02*
D03*
D28*
X0216554Y0299122D02*
D03*
D29*
X0213956Y0299024D02*
D03*
D30*
X0208031Y0298138D02*
D03*
D31*
X0188031D02*
D03*
D32*
X0161928Y0299417D02*
D03*
D33*
X0169999Y0302921D02*
D03*
Y0307252D02*
D03*
Y0311583D02*
D03*
Y0315913D02*
D03*
Y0320244D02*
D03*
Y0324575D02*
D03*
Y0328906D02*
D03*
Y0333236D02*
D03*
D34*
X0579488Y0358200D02*
D03*
X0590512D02*
D03*
D35*
X0598600Y0372250D02*
D03*
Y0378550D02*
D03*
X0598500Y0358250D02*
D03*
Y0364550D02*
D03*
D36*
X0613543Y0358184D02*
D03*
Y0376137D02*
D03*
D37*
X0638700Y0367200D02*
D03*
M02*
