G04 Layer_Color=8388736*
%FSAX25Y25*%
%MOIN*%
G70*
G01*
G75*
%ADD41R,0.03556X0.04147*%
%ADD42C,0.32296*%
%ADD43R,0.07296X0.07296*%
%ADD44C,0.07296*%
%ADD45C,0.04737*%
%ADD46C,0.06706*%
%ADD47C,0.06710*%
%ADD48O,0.16548X0.08674*%
%ADD49R,0.06706X0.06706*%
%ADD50C,0.06706*%
%ADD51C,0.02768*%
D41*
X0586661Y0294657D02*
D03*
X0593157D02*
D03*
X0668161Y0282358D02*
D03*
X0674657D02*
D03*
X0654543Y0282343D02*
D03*
X0661039D02*
D03*
D42*
X0635900Y0327700D02*
D03*
X0281700Y0328000D02*
D03*
X0203100Y0327700D02*
D03*
X0557400D02*
D03*
D43*
X0667218Y0308183D02*
D03*
D44*
Y0318183D02*
D03*
Y0328183D02*
D03*
Y0338183D02*
D03*
Y0348183D02*
D03*
X0677218Y0308183D02*
D03*
Y0318183D02*
D03*
Y0328183D02*
D03*
Y0338183D02*
D03*
Y0348183D02*
D03*
D45*
X0635900Y0327700D02*
D03*
X0281700Y0328000D02*
D03*
X0203100Y0327700D02*
D03*
X0557400D02*
D03*
D46*
X0198000Y0369163D02*
D03*
X0208000D02*
D03*
X0218000D02*
D03*
X0228000D02*
D03*
X0238000D02*
D03*
X0248000D02*
D03*
X0258000D02*
D03*
X0268000D02*
D03*
X0278000D02*
D03*
X0288000D02*
D03*
X0298000D02*
D03*
X0308000D02*
D03*
X0258000Y0287037D02*
D03*
X0268000D02*
D03*
X0278000D02*
D03*
X0248000D02*
D03*
X0238000D02*
D03*
X0228000D02*
D03*
X0218000D02*
D03*
X0288000Y0287076D02*
D03*
X0298000Y0287037D02*
D03*
X0308000D02*
D03*
X0318000D02*
D03*
X0328000D02*
D03*
X0338000D02*
D03*
X0348000D02*
D03*
X0208000D02*
D03*
X0198000D02*
D03*
X0404835Y0374870D02*
D03*
D47*
X0434874D02*
D03*
X0424835Y0374831D02*
D03*
X0414835D02*
D03*
D48*
X0460898Y0282469D02*
D03*
X0379165D02*
D03*
X0379205Y0372232D02*
D03*
X0460898D02*
D03*
D49*
X0602300Y0284900D02*
D03*
X0578000Y0285000D02*
D03*
X0588400Y0371600D02*
D03*
X0534500Y0285000D02*
D03*
D50*
X0612300Y0284900D02*
D03*
X0622300D02*
D03*
X0568000Y0285000D02*
D03*
X0558000D02*
D03*
X0578400Y0371600D02*
D03*
X0504500Y0285000D02*
D03*
X0514500D02*
D03*
X0524500D02*
D03*
X0431400Y0306200D02*
D03*
X0526500Y0297500D02*
D03*
X0513100Y0370700D02*
D03*
X0359800Y0342500D02*
D03*
X0565100Y0373800D02*
D03*
D51*
X0496063Y0307086D02*
D03*
Y0283465D02*
D03*
X0490157Y0318898D02*
D03*
X0472441Y0283465D02*
D03*
X0460630Y0330709D02*
D03*
X0448819D02*
D03*
Y0307086D02*
D03*
Y0283465D02*
D03*
X0437008Y0330709D02*
D03*
Y0283465D02*
D03*
X0425197Y0330709D02*
D03*
Y0283465D02*
D03*
X0413386Y0330709D02*
D03*
Y0283465D02*
D03*
X0401575D02*
D03*
X0389764Y0330709D02*
D03*
X0377953D02*
D03*
X0366142Y0283465D02*
D03*
X0354331Y0330709D02*
D03*
Y0307086D02*
D03*
Y0283465D02*
D03*
X0342520Y0330709D02*
D03*
Y0307086D02*
D03*
X0336614Y0295275D02*
D03*
X0182100Y0286600D02*
D03*
X0338900Y0317500D02*
D03*
X0249600Y0299500D02*
D03*
X0489500Y0279000D02*
D03*
X0356000Y0364000D02*
D03*
X0400500Y0362500D02*
D03*
X0427000Y0365000D02*
D03*
X0436000Y0360000D02*
D03*
X0368800Y0309600D02*
D03*
X0273100Y0338900D02*
D03*
X0200400Y0341000D02*
D03*
X0338500Y0322000D02*
D03*
X0523100Y0360500D02*
D03*
X0522800Y0356800D02*
D03*
X0551400Y0339700D02*
D03*
X0625300Y0336600D02*
D03*
M02*
