M48
;Layer_Color=9474304
;FILE_FORMAT=2:5
INCH
;TYPE=PLATED
T1F00S00C0.01181
T2F00S00C0.01575
T3F00S00C0.01968
T4F00S00C0.02756
T5F00S00C0.03543
T6F00S00C0.04331
;TYPE=NON_PLATED
%
T01
X0472441Y0283465
X0496063
Y0307086
X0448819
Y0283465
X0437008
X0425197
X0413386
X0401575
X0366142
X0354331
Y0307086
X0342520
X0336614Y0295275
X0368800Y0309600
X0249600Y0299500
X0182100Y0286600
X0200400Y0341000
X0273100Y0338900
X0342520Y0330709
X0354331
X0377953
X0389764
X0413386
X0425197
X0437008
X0448819
X0460630
X0436000Y0360000
X0427000Y0365000
X0400500Y0362500
X0356000Y0364000
X0338500Y0322000
X0338900Y0317500
X0490157Y0318898
X0522800Y0356800
X0523100Y0360500
X0551400Y0339700
X0625300Y0336600
T02
X0489500Y0279000
T03
X0203100Y0327700
X0281700Y0328000
X0557400Y0327700
X0635900
T04
X0526500Y0297500
X0431400Y0306200
X0359800Y0342500
X0513100Y0370700
X0565100Y0373800
T05
X0504500Y0285000
X0514500
X0524500
X0534500
X0558000
X0568000
X0578000
X0602300Y0284900
X0612300
X0622300
X0348000Y0287037
X0338000
X0328000
X0318000
X0308000
X0298000
X0288000Y0287076
X0278000Y0287037
X0268000
X0258000
X0248000
X0238000
X0228000
X0218000
X0208000
X0198000
Y0369163
X0208000
X0218000
X0228000
X0238000
X0248000
X0258000
X0268000
X0278000
X0288000
X0298000
X0308000
X0404835Y0374870
X0414835Y0374831
X0424835
X0434874Y0374870
X0578400Y0371600
X0588400
T06
X0667218Y0308183
X0677218
Y0318183
X0667218
Y0328183
Y0338183
Y0348183
X0677218
Y0338183
Y0328183
M30
